<svg xmlns="http://www.w3.org/2000/svg" viewBox="0 0 57.95 45.6"><defs><style>.cls-1{fill:#eb2155;}.cls-2{fill:#0d152b;}</style></defs><title>Asset 6</title><g id="Layer_2" data-name="Layer 2"><g id="Layer_1-2" data-name="Layer 1"><path class="cls-1" d="M29,45.6a5.53,5.53,0,1,0-5.53-5.53A5.52,5.52,0,0,0,29,45.6Zm0-9.54a4,4,0,1,1-4,4A4,4,0,0,1,29,36.06Z"/><path class="cls-2" d="M52.45,17.43A3.42,3.42,0,1,0,49,14,3.42,3.42,0,0,0,52.45,17.43Zm0-5.31a1.9,1.9,0,1,1-1.9,1.9A1.9,1.9,0,0,1,52.45,12.12Z"/><path class="cls-2" d="M57.74,26.44l-4-6.92a1.49,1.49,0,0,0-2.59,0l-4,6.92a1.5,1.5,0,0,0,1.3,2.24h8A1.49,1.49,0,0,0,57.74,26.44Zm-9.26.75,4-6.9,4,6.87Z"/><path class="cls-2" d="M5.49,17.43A3.42,3.42,0,1,0,2.08,14,3.42,3.42,0,0,0,5.49,17.43Zm0-5.31A1.9,1.9,0,1,1,3.59,14,1.9,1.9,0,0,1,5.49,12.12Z"/><path class="cls-2" d="M6.79,19.52a1.49,1.49,0,0,0-2.59,0l-4,6.92a1.5,1.5,0,0,0,1.3,2.24h8a1.49,1.49,0,0,0,1.29-2.24ZM1.51,27.19l4-6.9,4,6.87Z"/><path class="cls-2" d="M29,6.83a3.42,3.42,0,1,0-3.41-3.42A3.42,3.42,0,0,0,29,6.83Zm0-5.32a1.9,1.9,0,1,1-1.9,1.9A1.91,1.91,0,0,1,29,1.51Z"/><path class="cls-2" d="M25,18.08h8a1.5,1.5,0,0,0,1.29-2.25l-4-6.92a1.5,1.5,0,0,0-2.59,0l-4,6.92A1.5,1.5,0,0,0,25,18.08Zm4-8.39,4,6.87-8,0Z"/><path class="cls-2" d="M19.13,35.68a.19.19,0,0,0,0-.07l-.63-2.37a.76.76,0,0,0-.74-.57.75.75,0,0,0-.53.23l-.37.36L12.55,29A.76.76,0,0,0,11.48,30l4.29,4.29-.49.49a.77.77,0,0,0,.34,1.28l2.63.7.2,0a.76.76,0,0,0,.73-1Z"/><path class="cls-2" d="M45.18,29l-4.29,4.3-.36-.36a.79.79,0,0,0-.54-.23.77.77,0,0,0-.74.57l-.63,2.37s0,0,0,.08l-.05.18a.76.76,0,0,0,.73,1,.69.69,0,0,0,.2,0l2.63-.7a.76.76,0,0,0,.34-1.28L42,34.33,46.26,30A.76.76,0,0,0,45.18,29Z"/><path class="cls-2" d="M29.21,20.45h0a.76.76,0,0,0-.76.76v6.07h-.52a.76.76,0,0,0-.66,1.14l1.23,2.13,0,.07.1.16a.74.74,0,0,0,.66.38.76.76,0,0,0,.66-.37l1.36-2.36a.76.76,0,0,0-.65-1.14H30l0-6.08A.76.76,0,0,0,29.21,20.45Z"/></g></g></svg>