<?xml version="1.0"?>
<svg xmlns="http://www.w3.org/2000/svg" xmlns:xlink="http://www.w3.org/1999/xlink" version="1.1" id="Capa_1" x="0px" y="0px" viewBox="0 0 512 512" style="enable-background:new 0 0 512 512;" xml:space="preserve" width="512px" height="512px" class=""><g><path style="fill:#F9F7F7" d="M303.288,354.19c-13.896,11.061-31.481,17.688-50.622,17.688l0,0  c-18.486,0-35.523-6.174-49.186-16.56c-58.092,21.064-99.599,76.732-99.599,142.098v14.492h302.223v-14.492  C406.104,430.849,363.06,374.337,303.288,354.19z" data-original="#F44336" class="" data-old_color="#F44336"/><polygon style="fill:#DD6585" points="66.607,81.637 82.172,113.176 116.977,118.234 91.792,142.784 97.738,177.448   66.607,161.081 35.476,177.448 41.422,142.784 16.236,118.234 51.041,113.176 " data-original="#FDCC15" class="active-path" data-old_color="#FDCC15"/><path style="fill:#FFFFFF" d="M334.034,219.604H167.902c-12.797,0-23.17-10.373-23.17-23.17l0,0  c0-19.944,16.168-36.112,36.112-36.112h122.971c16.69,0,30.218,13.53,30.218,30.218v29.064H334.034z" data-original="#D56826" class="" data-old_color="#D56826"/><g>
	<polygon style="fill:#DD6585" points="445.393,80.368 460.959,111.907 495.764,116.964 470.578,141.513 476.524,176.178    445.393,159.812 414.262,176.178 420.208,141.513 395.023,116.964 429.828,111.907  " data-original="#FDCC15" class="active-path" data-old_color="#FDCC15"/>
	<polygon style="fill:#DD6585" points="252.665,17.163 268.231,48.702 303.036,53.76 277.851,78.31 283.796,112.973    252.665,96.607 221.535,112.973 227.48,78.31 202.295,53.76 237.101,48.702  " data-original="#FDCC15" class="active-path" data-old_color="#FDCC15"/>
</g><path style="fill:#F3F2F2" d="M323.805,362.855c-6.575-3.369-13.426-6.276-20.516-8.666  c-13.896,11.061-31.481,17.688-50.622,17.688l0,0c-18.486,0-35.523-6.174-49.186-16.56c-7.027,2.548-13.808,5.606-20.305,9.123  c18.176,17.095,42.63,27.585,69.491,27.585C280.348,392.026,305.473,380.884,323.805,362.855z" data-original="#D32F2F" class="" data-old_color="#D32F2F"/><path style="fill:#F3F3F3" d="M252.666,371.878L252.666,371.878c-44.939,0-81.367-36.43-81.367-81.367v-70.907h162.735v70.907  C334.034,335.448,297.604,371.878,252.666,371.878z" data-original="#FFE0B2" class="" data-old_color="#FFE0B2"/><rect x="171.3" y="219.605" style="fill:#F5F5F5" width="162.737" height="20.148" data-original="#FFCC80" class="" data-old_color="#FFCC80"/><path style="fill:#F5F5F5" d="M334.034,219.604H167.902c-12.797,0-23.17-10.373-23.17-23.17h166.132  C323.66,196.433,334.034,206.808,334.034,219.604L334.034,219.604z" data-original="#D15A18" class="" data-old_color="#D15A18"/><rect x="152.119" y="465.564" width="15.111" height="46.341" data-original="#000000" class="" style="fill:#000000" data-old_color="#000000"/><rect x="342.751" y="465.564" width="15.111" height="46.341" data-original="#000000" class="" style="fill:#000000" data-old_color="#000000"/><path d="M317.344,351.469c15.022-15.93,24.245-37.386,24.245-60.958l0,0v-99.969l0,0c0-20.829-16.946-37.775-37.775-37.775H180.843  c-24.078,0-43.667,19.589-43.667,43.667c0,15.531,11.585,28.399,26.566,30.437v63.64c0,24.294,9.796,46.339,25.641,62.405  c-56.137,25.528-93.057,82.115-93.057,144.502v14.492h15.111v-14.492c0-58.916,36.403-112.094,90.969-133.591  c14.307,9.838,31.622,15.607,50.26,15.607c19.362,0,37.296-6.225,51.914-16.772c56.368,20.719,93.968,74.376,93.968,134.755v14.492  h15.111v-14.492C413.66,433.415,375.435,376.244,317.344,351.469z M152.287,196.433c0-15.746,12.81-28.556,28.556-28.556h122.971  c12.497,0,22.664,10.167,22.664,22.664v21.508H167.902C159.292,212.048,152.287,205.044,152.287,196.433z M252.666,364.322  L252.666,364.322c-40.7,0-73.813-33.112-73.813-73.812v-63.351h147.625v63.351C326.478,331.211,293.366,364.322,252.666,364.322z" data-original="#000000" class="" style="fill:#000000" data-old_color="#000000"/><rect x="210.821" y="269.008" width="17.436" height="15.111" data-original="#000000" class="" style="fill:#000000" data-old_color="#000000"/><rect x="281.732" y="269.008" width="17.436" height="15.111" data-original="#000000" class="" style="fill:#000000" data-old_color="#000000"/><path d="M66.607,169.617l41.166,21.642l-7.862-45.838l33.304-32.463L87.19,106.27L66.607,64.565L46.025,106.27L0,112.958  l33.304,32.463l-7.862,45.838L66.607,169.617z M32.473,123.51l23.586-3.427l10.548-21.372l10.548,21.372l23.586,3.427  l-17.067,16.635l4.03,23.491l-21.096-11.091l-21.096,11.091l4.03-23.491L32.473,123.51z" data-original="#000000" class="" style="fill:#000000" data-old_color="#000000"/><path d="M512,111.689l-46.025-6.688l-20.582-41.705l-20.582,41.705l-46.025,6.688l33.304,32.463l-7.862,45.838l41.166-21.642  l41.166,21.642l-7.862-45.838L512,111.689z M445.393,151.276l-21.096,11.091l4.03-23.491l-17.067-16.635l23.586-3.427l10.548-21.372  l10.548,21.372l23.586,3.426l-17.067,16.635l4.03,23.491L445.393,151.276z" data-original="#000000" class="" style="fill:#000000" data-old_color="#000000"/><path d="M211.501,126.785l41.166-21.642l41.165,21.642l-7.862-45.838l33.304-32.463l-46.025-6.688L252.666,0.091l-20.583,41.705  l-46.025,6.688l33.304,32.463L211.501,126.785z M218.532,59.036l23.585-3.427l10.549-21.372l10.548,21.372l23.586,3.427  l-17.067,16.635l4.029,23.491l-21.095-11.091l-21.096,11.091l4.03-23.491L218.532,59.036z" data-original="#000000" class="" style="fill:#000000" data-old_color="#000000"/><rect x="59.054" y="328.556" width="15.111" height="15.111" data-original="#000000" class="" style="fill:#000000" data-old_color="#000000"/><rect x="59.054" y="358.778" width="15.111" height="46.341" data-original="#000000" class="" style="fill:#000000" data-old_color="#000000"/><rect x="59.054" y="298.334" width="15.111" height="15.111" data-original="#000000" class="" style="fill:#000000" data-old_color="#000000"/><rect x="59.054" y="232.852" width="15.111" height="50.371" data-original="#000000" class="" style="fill:#000000" data-old_color="#000000"/><rect x="59.054" y="202.63" width="15.111" height="15.111" data-original="#000000" class="" style="fill:#000000" data-old_color="#000000"/><rect x="437.84" y="383.964" width="15.111" height="15.111" data-original="#000000" class="" style="fill:#000000" data-old_color="#000000"/><rect x="437.84" y="414.186" width="15.111" height="15.111" data-original="#000000" class="" style="fill:#000000" data-old_color="#000000"/><rect x="437.84" y="200.615" width="15.111" height="15.111" data-original="#000000" class="" style="fill:#000000" data-old_color="#000000"/><rect x="437.84" y="261.06" width="15.111" height="107.793" data-original="#000000" class="" style="fill:#000000" data-old_color="#000000"/><rect x="437.84" y="230.837" width="15.111" height="15.111" data-original="#000000" class="" style="fill:#000000" data-old_color="#000000"/><g>
	<path style="fill:#FFFFFF" d="M346.676,430.72c-9.402-12.937-21.182-23.538-35.012-31.51l7.546-13.092   c15.679,9.037,29.034,21.054,39.69,35.719L346.676,430.72z" data-original="#FFFFFF" class="" data-old_color="#FFFFFF"/>
	<path style="fill:#FFFFFF" d="M156.17,442.065l-13.177-7.396c9.552-17.019,23.056-31.871,39.05-42.952l8.605,12.421   C176.528,413.92,164.607,427.036,156.17,442.065z" data-original="#FFFFFF" class="" data-old_color="#FFFFFF"/>
</g></g> </svg>
