<svg xmlns="http://www.w3.org/2000/svg" viewBox="0 0 59.03 59.03"><defs><style>.cls-1{fill:#eb2155;}.cls-2{fill:#0d152b;}</style></defs><title>Asset 5</title><g id="Layer_2" data-name="Layer 2"><g id="Layer_1-2" data-name="Layer 1"><path class="cls-1" d="M19.06,38.94a1.21,1.21,0,0,0,.9.41H39.07a1.15,1.15,0,0,0,.9-.42,1.17,1.17,0,0,0,.27-1L39,30.53v-11a1.69,1.69,0,0,0-1.69-1.69H21.7A1.7,1.7,0,0,0,20,19.57v11L18.8,38A1.17,1.17,0,0,0,19.06,38.94Zm2-7.79h3.46l-.28,2.77H20.61Zm4.6,0H29v2.77H25.39ZM29,35.06v3.13H25l.31-3.12Zm1.14,0h3.7l.31,3.14h-4Zm0-1.14V31.15h3.32l.27,2.77Zm4.46-2.77h3.34l.45,2.77H34.86ZM37.83,30H21.14V22H37.83ZM19.92,38.17l.51-3.11h3.7l-.31,3.12Zm15.36,0L35,35.06h3.59l.51,3.15ZM21.7,19H37.28a.55.55,0,0,1,.55.55v1.32H21.14V19.57A.56.56,0,0,1,21.7,19Z"/><path class="cls-2" d="M34.22,4.68a4.7,4.7,0,1,0-4.7,4.67A4.7,4.7,0,0,0,34.22,4.68Zm-7.92,0a3.22,3.22,0,1,1,3.22,3.2A3.21,3.21,0,0,1,26.3,4.68Z"/><path class="cls-2" d="M51.77,12a4.63,4.63,0,0,0-1.38-3.31,4.7,4.7,0,0,0-3.32-1.39h0a4.69,4.69,0,0,0,0,9.38h0A4.68,4.68,0,0,0,51.77,12Zm-2.41,2.27a3.22,3.22,0,1,1-2.3-5.49,3.25,3.25,0,0,1,2.29.95A3.22,3.22,0,0,1,49.36,14.23Z"/><path class="cls-2" d="M54.36,24.82A4.7,4.7,0,1,0,59,29.52,4.7,4.7,0,0,0,54.36,24.82Zm0,7.92a3.22,3.22,0,1,1,3.2-3.22A3.21,3.21,0,0,1,54.36,32.74Z"/><path class="cls-2" d="M47.11,42.4h0a4.69,4.69,0,1,0,0,9.37h0a4.69,4.69,0,1,0,0-9.37Zm2.24,7a3.2,3.2,0,1,1-2.24-5.48,3.18,3.18,0,0,1,2.25.93A3.23,3.23,0,0,1,49.35,49.35Z"/><path class="cls-2" d="M24.82,54.36a4.7,4.7,0,1,0,4.7-4.68A4.69,4.69,0,0,0,24.82,54.36Zm7.92,0a3.22,3.22,0,1,1-3.22-3.2A3.22,3.22,0,0,1,32.74,54.36Z"/><path class="cls-2" d="M7.26,47.07a4.7,4.7,0,0,0,1.39,3.32A4.63,4.63,0,0,0,12,51.77h0a4.67,4.67,0,0,0,3.29-8,4.67,4.67,0,0,0-3.32-1.38h0a4.66,4.66,0,0,0-4.67,4.67ZM9.67,44.8a3.22,3.22,0,1,1,0,4.55A3.23,3.23,0,0,1,9.67,44.8Z"/><path class="cls-2" d="M4.68,34.22A4.7,4.7,0,1,0,0,29.52,4.69,4.69,0,0,0,4.68,34.22Zm0-7.92a3.22,3.22,0,1,1-3.2,3.22A3.21,3.21,0,0,1,4.68,26.3Z"/><path class="cls-2" d="M11.93,16.64h0a4.71,4.71,0,0,0,4.7-4.7A4.68,4.68,0,0,0,12,7.26h0a4.69,4.69,0,1,0,0,9.38Zm-2.24-7A3.23,3.23,0,0,1,12,8.74a3.23,3.23,0,1,1-2.28.95Z"/><path class="cls-2" d="M17.43,8.55a.65.65,0,0,0,.36-.1,24.47,24.47,0,0,1,4.84-2,.75.75,0,0,0,.5-.92A.74.74,0,0,0,22.21,5a26,26,0,0,0-5.14,2.16.75.75,0,0,0-.28,1A.73.73,0,0,0,17.43,8.55Z"/><path class="cls-2" d="M40.92,8.28a.73.73,0,0,0,1-.3.74.74,0,0,0-.3-1,25.14,25.14,0,0,0-5.16-2.09.73.73,0,1,0-.4,1.41A24.42,24.42,0,0,1,40.92,8.28Z"/><path class="cls-2" d="M52.53,22.54a.75.75,0,0,0,.71.53.52.52,0,0,0,.21,0,.72.72,0,0,0,.49-.91A25.45,25.45,0,0,0,51.78,17a.74.74,0,0,0-1.29.72A24.22,24.22,0,0,1,52.53,22.54Z"/><path class="cls-2" d="M53.55,35.46a.73.73,0,0,0-.91.5,24.27,24.27,0,0,1-2,4.87.74.74,0,0,0,.3,1,.73.73,0,0,0,.35.09.75.75,0,0,0,.65-.39,25.74,25.74,0,0,0,2.1-5.16A.74.74,0,0,0,53.55,35.46Z"/><path class="cls-2" d="M41.24,50.4a24.22,24.22,0,0,1-4.84,2,.74.74,0,0,0,.21,1.44.83.83,0,0,0,.22,0A25.94,25.94,0,0,0,42,51.69a.74.74,0,1,0-.72-1.29Z"/><path class="cls-2" d="M18.11,50.57a.74.74,0,0,0-1,.3.74.74,0,0,0,.3,1A25.22,25.22,0,0,0,22.58,54a.64.64,0,0,0,.2,0,.75.75,0,0,0,.71-.53.74.74,0,0,0-.51-.91A24.27,24.27,0,0,1,18.11,50.57Z"/><path class="cls-2" d="M6.5,36.31a.74.74,0,0,0-1.41.42,25.48,25.48,0,0,0,2.17,5.14.73.73,0,0,0,.64.38.68.68,0,0,0,.36-.1.72.72,0,0,0,.28-1A24.22,24.22,0,0,1,6.5,36.31Z"/><path class="cls-2" d="M7.08,17.32A25.17,25.17,0,0,0,5,22.48a.73.73,0,0,0,.51.91.64.64,0,0,0,.2,0,.75.75,0,0,0,.71-.53,23.7,23.7,0,0,1,2-4.87.74.74,0,1,0-1.3-.7Z"/></g></g></svg>