<svg xmlns="http://www.w3.org/2000/svg" viewBox="0 0 52.9 53.25"><defs><style>.cls-1{fill:#0d152b;}.cls-2{fill:#eb2155;}</style></defs><title>Asset 3</title><g id="Layer_2" data-name="Layer 2"><g id="Layer_1-2" data-name="Layer 1"><path class="cls-1" d="M19.5,39A19.5,19.5,0,1,1,39,19.5,19.46,19.46,0,0,1,19.5,39Zm0-38A18.5,18.5,0,1,0,38,19.5,18.52,18.52,0,0,0,19.5,1Z"/><path class="cls-1" d="M19.5,35A15.5,15.5,0,1,1,35,19.5,15.58,15.58,0,0,1,19.5,35Zm0-30A14.5,14.5,0,1,0,34,19.5,14.51,14.51,0,0,0,19.5,5Z"/><rect class="cls-1" x="34.69" y="33.11" width="1" height="5" transform="translate(-14.87 35.32) rotate(-45)"/><path class="cls-1" d="M50.1,45.5,40.5,36l1.1-1.1-.7-.7-3.6,3.5-2.1,2.1h0l-1.4,1.4.7.7,1.1-1.1,9.5,9.5c.1.1.2.1.4.1s.3,0,.4-.1l4.2-4.2c.1-.1.1-.2.1-.4S50.2,45.6,50.1,45.5Zm-4.6,3.9-9.2-9.2,1.8-1.8,1.8-1.8,9.2,9.2Z"/><rect class="cls-1" x="44.01" y="48.87" width="10" height="1" transform="translate(-20.55 49.12) rotate(-45)"/><path class="cls-2" d="M19.5,23.2A3.54,3.54,0,0,1,16,19.7v-4a3.5,3.5,0,0,1,7,0v4A3.54,3.54,0,0,1,19.5,23.2Zm0-10A2.48,2.48,0,0,0,17,15.7v4a2.5,2.5,0,1,0,5,0v-4A2.48,2.48,0,0,0,19.5,13.2Z"/><path class="cls-2" d="M25,19.7H24a4.5,4.5,0,1,1-9,0H14a5.54,5.54,0,0,0,5,5.5v1H17.5v1h4v-1H20v-1A5.54,5.54,0,0,0,25,19.7Z"/></g></g></svg>