<svg xmlns="http://www.w3.org/2000/svg" viewBox="0 0 45.6 45.6"><defs><style>.cls-1{fill:#0d152b;}.cls-2{fill:#eb2155;}</style></defs><title>Asset 2</title><g id="Layer_2" data-name="Layer 2"><g id="Layer_1-2" data-name="Layer 1"><path class="cls-1" d="M17.51,0a17.51,17.51,0,1,0,12,30.25l4.22,4.22L32,36.23A.51.51,0,0,0,32,37l8.48,8.48a.51.51,0,0,0,.74,0l4.26-4.26a.51.51,0,0,0,0-.74L37,32a.53.53,0,0,0-.68-.07l-.06.07-1.76,1.74-4.22-4.23A17.48,17.48,0,0,0,17.51,0Zm0,1.09A16.42,16.42,0,1,1,1.09,17.51,16.4,16.4,0,0,1,17.51,1.09Zm19.08,32,7.74,7.74-3.5,3.5-7.74-7.74Z"/><path class="cls-2" d="M17.51,6.91a4.24,4.24,0,1,0,4.24,4.24A4.24,4.24,0,0,0,17.51,6.91Zm0,7.42a3.18,3.18,0,1,1,3.18-3.18A3.18,3.18,0,0,1,17.51,14.33Z"/><path class="cls-2" d="M17.51,17.51a8.23,8.23,0,0,0-8.48,8,.53.53,0,0,0,.53.53h15.9a.53.53,0,0,0,.53-.53A8.23,8.23,0,0,0,17.51,17.51Zm-7.37,7.42a7.19,7.19,0,0,1,7.37-6.36,7.19,7.19,0,0,1,7.37,6.36Z"/></g></g></svg>