<svg xmlns="http://www.w3.org/2000/svg" viewBox="0 0 51.39 54.21"><defs><style>.cls-1{fill:#eb2155;}.cls-2{fill:#0d152b;}</style></defs><title>Asset 4</title><g id="Layer_2" data-name="Layer 2"><g id="Layer_1-2" data-name="Layer 1"><path class="cls-1" d="M26.35,24H25a3.57,3.57,0,0,1-3.57-3.57V20a.54.54,0,0,1,.54-.54.51.51,0,0,1,.54.54v.49A2.54,2.54,0,0,0,25.1,23h1.3A2.54,2.54,0,0,0,29,20.44V20l-.06-1.68v-.06A4.69,4.69,0,0,1,30.19,15,6.34,6.34,0,0,0,30,5.91,6.33,6.33,0,0,0,19.41,10a6.12,6.12,0,0,0,1.79,4.94,5,5,0,0,1,1.35,2.71h3.14a.54.54,0,0,1,.55.54.55.55,0,0,1-.55.54H22a.54.54,0,0,1-.54-.54,3.57,3.57,0,0,0-1-2.49A7.36,7.36,0,0,1,25.15,3.14a7.14,7.14,0,0,1,5.53,2A7.49,7.49,0,0,1,33,10.46a7.33,7.33,0,0,1-2.17,5.26,3.4,3.4,0,0,0-1,2.44l.05,2.22A3.58,3.58,0,0,1,26.35,24Z"/><path class="cls-2" d="M25.69,2.66a.55.55,0,0,1-.54-.55V.54a.55.55,0,0,1,1.09,0V2.11A.58.58,0,0,1,25.69,2.66Z"/><path class="cls-2" d="M22.82,3.2a.49.49,0,0,1-.49-.33l-.54-1.46A.57.57,0,0,1,22.12.7a.57.57,0,0,1,.7.33l.54,1.46A.57.57,0,0,1,23,3.2Z"/><path class="cls-2" d="M20.27,4.72a.5.5,0,0,1-.43-.22l-1-1.19a.59.59,0,0,1,.05-.76.59.59,0,0,1,.76.05l1,1.19a.57.57,0,0,1,0,.76C20.55,4.72,20.38,4.72,20.27,4.72Z"/><path class="cls-2" d="M18.43,7.05A.45.45,0,0,1,18.16,7L16.8,6.23a.54.54,0,0,1-.21-.7.54.54,0,0,1,.7-.22l1.36.76a.55.55,0,0,1,.21.71A.42.42,0,0,1,18.43,7.05Z"/><path class="cls-2" d="M28.57,3.2a.17.17,0,0,1-.16-.06.53.53,0,0,1-.33-.7L28.62,1a.55.55,0,1,1,1,.38l-.54,1.46A.57.57,0,0,1,28.57,3.2Z"/><path class="cls-2" d="M31.12,4.72a.86.86,0,0,1-.33-.11.52.52,0,0,1-.05-.76l1-1.19a.54.54,0,1,1,.81.7l-1,1.19A.71.71,0,0,1,31.12,4.72Z"/><path class="cls-2" d="M33,7.05a.66.66,0,0,1-.49-.27.49.49,0,0,1,.22-.71L34,5.31a.49.49,0,0,1,.71.22.48.48,0,0,1-.22.7L33.18,7C33.12,7,33.07,7.05,33,7.05Z"/><path class="cls-2" d="M25.69,27.7A2.73,2.73,0,0,1,23,25a.55.55,0,0,1,1.09,0,1.68,1.68,0,0,0,3.36,0,.54.54,0,0,1,1.08,0A2.84,2.84,0,0,1,25.69,27.7Z"/><path class="cls-2" d="M29.49,31a.66.66,0,0,1-.49-.27.49.49,0,0,1,.22-.71l13.55-7.8-10.08-5.8a.56.56,0,0,1-.22-.71.56.56,0,0,1,.71-.22l10.89,6.24a.58.58,0,0,1,.27.49.56.56,0,0,1-.27.48L29.76,30.9C29.65,31,29.6,31,29.49,31Z"/><path class="cls-2" d="M21.85,31a.5.5,0,0,1-.27-.05L7.32,22.66a.58.58,0,0,1,0-1l10.89-6.23a.49.49,0,0,1,.71.22.48.48,0,0,1-.22.7L8.62,22.17,22.12,30a.54.54,0,0,1,.21.7A.46.46,0,0,1,21.85,31Z"/><path class="cls-2" d="M25.69,54.21,7.05,43.42V33.88a.54.54,0,0,1,.54-.54.54.54,0,0,1,.54.54v8.94L25.69,53,43.31,42.82V34.15a.55.55,0,0,1,1.09,0v9.27Z"/><path class="cls-2" d="M25.69,47.11a.54.54,0,0,1-.54-.54V37.13a.55.55,0,0,1,1.09,0v9.44A.58.58,0,0,1,25.69,47.11Z"/><path class="cls-2" d="M32.74,37.24a.52.52,0,0,1-.27-.05l-7-4.07a.52.52,0,0,1,.49-.92l6.83,3.9,17.08-9.86-6.24-3.58a.55.55,0,0,1-.21-.71.54.54,0,0,1,.7-.21l7,4.06a.58.58,0,0,1,0,1L33,37.19A.36.36,0,0,1,32.74,37.24Z"/><path class="cls-2" d="M18.65,37.24a.52.52,0,0,1-.27-.05L.27,26.67A.58.58,0,0,1,0,26.18a.59.59,0,0,1,.27-.49l7.05-4.06a.48.48,0,0,1,.7.22.47.47,0,0,1-.21.7L1.63,26.24l17,9.86,6.77-3.9a.49.49,0,0,1,.71.22.48.48,0,0,1-.22.7l-7,4.07C18.86,37.24,18.76,37.24,18.65,37.24Z"/></g></g></svg>