<svg xmlns="http://www.w3.org/2000/svg" viewBox="0 0 227.07 81.76"><defs><style>.cls-1{fill:#fff;}.cls-2{fill:#eb2155;}</style></defs><title>Asset 1</title><g id="Layer_2" data-name="Layer 2"><g id="Layer_1-2" data-name="Layer 1"><path class="cls-1" d="M43,51.88V77.79a4,4,0,0,1-4,4H4A4,4,0,0,1,1.62,74.6l35-25.91A4,4,0,0,1,43,51.88Z"/><path class="cls-1" d="M43,30.29V4.38a4,4,0,0,0-4-4H4A4,4,0,0,0,1.62,7.57l35,25.91A4,4,0,0,0,43,30.29Z"/><path class="cls-2" d="M28.47,43.85,4.31,62C2.44,63.39,0,61.82,0,59.22V23c0-2.6,2.44-4.17,4.31-2.77L28.47,38.32A3.61,3.61,0,0,1,28.47,43.85Z"/><path class="cls-1" d="M67.44,23.15H59.3V.33h8.14q5.58,0,7.39,4.42a17.45,17.45,0,0,1,1.06,6.66q0,8.61-4.29,10.85A8.85,8.85,0,0,1,67.44,23.15Zm5.84-11.74q0-6.55-2.93-8.18a5.93,5.93,0,0,0-2.91-.66h-5.6V20.91h5.6Q73.29,20.91,73.28,11.41Z"/><path class="cls-1" d="M80.57,23.15V.33h2.54V23.15Z"/><path class="cls-1" d="M97.72,13.75V11.48H104V22.69a39.87,39.87,0,0,1-7.42.79c-3.32,0-5.62-.95-6.91-2.87s-1.93-4.86-1.93-8.85.64-6.95,1.93-8.87S93.26,0,96.53,0a32.44,32.44,0,0,1,6.37.66l1.12.2L103.92,3a43.48,43.48,0,0,0-7.09-.69q-3.8,0-5.11,2.19T90.4,11.76q0,5.08,1.32,7.29t5.08,2.19a24.71,24.71,0,0,0,4.71-.46v-7Z"/><path class="cls-1" d="M109,23.15V.33h2.54V23.15Z"/><path class="cls-1" d="M114.74,2.61V.33h16.49V2.61h-7V23.15h-2.51V2.61Z"/><path class="cls-1" d="M130.9,23.15,137.16.33h5.55L149,23.15h-2.5l-1.65-5.87h-9.77l-1.65,5.87Zm8.18-20.64L135.61,15h8.65l-3.47-12.5Z"/><path class="cls-1" d="M165.13,23.15H152.57V.33h2.54V20.88h10Z"/><path class="cls-1" d="M59.3,52.29V29.46h4.58l6.47,19.3,6.46-19.3H81.4V52.29H78.86V32.17h-.47L71.76,51.46H68.93L62.3,32.17h-.46V52.29Z"/><path class="cls-1" d="M85,52.29l6.26-22.83H96.8l6.26,22.83h-2.5l-1.65-5.87H89.14L87.5,52.29Zm8.18-20.65-3.46,12.5h8.64l-3.47-12.5Z"/><path class="cls-1" d="M109.2,43.55v8.74h-2.54V29.46h8.44a7.78,7.78,0,0,1,5.46,1.69c1.22,1.12,1.83,2.86,1.83,5.24q0,5.28-4.19,6.63l4.39,9.27h-2.81l-4.12-8.74Zm5.93-2.25q4.65,0,4.65-4.8t-4.68-4.79h-5.9V41.3Z"/><path class="cls-1" d="M129.51,52.29H127V29.46h2.54V40.08l3.76-.13,5.84-10.49H142l-6.53,11.48,6.9,11.35h-3l-6.07-10.1-3.8.14Z"/><path class="cls-1" d="M145.74,52.29V29.46h13.89v2.25H148.28v7.88h9.37V41.8h-9.37V50h11.35v2.25Z"/><path class="cls-1" d="M161.6,31.74V29.46h16.5v2.28h-7V52.29h-2.51V31.74Z"/><path class="cls-1" d="M181.33,52.29V29.46h2.54V52.29Z"/><path class="cls-1" d="M189.44,52.29V29.46h4.75L202.93,50h.69V29.46h2.51V52.29h-4.65l-8.87-20.58H192V52.29Z"/><path class="cls-1" d="M220.77,42.89V40.61h6.3V51.82a40,40,0,0,1-7.42.8q-5,0-6.91-2.87c-1.28-1.92-1.93-4.87-1.93-8.86s.65-7,1.93-8.87,3.57-2.89,6.84-2.89a32.44,32.44,0,0,1,6.37.66l1.12.2L227,32.1a43.38,43.38,0,0,0-7.09-.69q-3.8,0-5.11,2.19t-1.32,7.29q0,5.1,1.32,7.29t5.08,2.19a24.89,24.89,0,0,0,4.72-.46v-7Z"/><path class="cls-1" d="M73.08,81.06a31,31,0,0,1-6.1.69A11,11,0,0,1,62.61,81,5.5,5.5,0,0,1,60,78.7a10.51,10.51,0,0,1-1.25-3.6A30.87,30.87,0,0,1,58.44,70,31.44,31.44,0,0,1,58.79,65,10.79,10.79,0,0,1,60,61.3,5.42,5.42,0,0,1,62.6,59a10.75,10.75,0,0,1,4.28-.72,31.83,31.83,0,0,1,6.2.72L73,61.14a33.88,33.88,0,0,0-5.93-.6q-3.63,0-4.8,2.16t-1.17,7.37a33.18,33.18,0,0,0,.21,4.19,9.64,9.64,0,0,0,.84,2.86A3.74,3.74,0,0,0,64,78.93a9,9,0,0,0,3.53.54A29.94,29.94,0,0,0,73,78.88Z"/><path class="cls-1" d="M94,70.17q0,6.1-1.94,8.84T85,81.75c-3.42,0-5.77-.93-7.07-2.8s-2-4.81-2-8.83.66-7,2-8.93,3.66-2.92,7-2.92,5.71,1,7,2.9S94,66.11,94,70.17Zm-15.43-.06q0,5,1.32,7.2c.88,1.47,2.57,2.2,5.09,2.2s4.21-.72,5.08-2.15,1.3-3.82,1.3-7.19S90.9,64.36,90,62.82s-2.59-2.31-5.06-2.31-4.16.76-5,2.29S78.56,66.77,78.56,70.11Z"/><path class="cls-1" d="M98.64,81.42V58.6h4.75l8.74,20.58h.7V58.6h2.5V81.42h-4.65l-8.87-20.58h-.63V81.42Z"/><path class="cls-1" d="M120.94,81.42V58.6h4.75l8.74,20.58h.69V58.6h2.51V81.42H133L124.1,60.84h-.62V81.42Z"/><path class="cls-1" d="M143.23,81.42V58.6h13.89v2.24H145.77v7.88h9.37v2.21h-9.37v8.25h11.35v2.24Z"/><path class="cls-1" d="M175,81.06a31,31,0,0,1-6.11.69,11,11,0,0,1-4.37-.74A5.55,5.55,0,0,1,162,78.7a10.72,10.72,0,0,1-1.25-3.6,30.87,30.87,0,0,1-.35-5.06A31.44,31.44,0,0,1,160.7,65,11,11,0,0,1,162,61.3,5.47,5.47,0,0,1,164.51,59a10.78,10.78,0,0,1,4.28-.72A32,32,0,0,1,175,59l-.1,2.15a33.89,33.89,0,0,0-5.94-.6q-3.63,0-4.8,2.16T163,70.07a31.12,31.12,0,0,0,.22,4.19,9.09,9.09,0,0,0,.84,2.86,3.66,3.66,0,0,0,1.83,1.81,8.94,8.94,0,0,0,3.52.54,30,30,0,0,0,5.5-.59Z"/><path class="cls-1" d="M176.78,60.87V58.6h16.49v2.27h-7V81.42H183.8V60.87Z"/></g></g></svg>