<?xml version="1.0" encoding="utf-8"?>
<!-- Generator: Adobe Illustrator 23.0.2, SVG Export Plug-In . SVG Version: 6.00 Build 0)  -->
<svg version="1.1" id="Layer_1" xmlns="http://www.w3.org/2000/svg" xmlns:xlink="http://www.w3.org/1999/xlink" x="0px" y="0px"
	 viewBox="0 0 250 250" style="enable-background:new 0 0 250 250;" xml:space="preserve">
<style type="text/css">
	.st0{clip-path:url(#SVGID_2_);fill:url(#SVGID_3_);}
</style>
<g>
	<defs>
		<path id="SVGID_1_" d="M129.2,170.6c0-0.1,0-0.2,0-0.3c0,0.1,0,0.1,0.1,0.2v0.1c-0.1,0.1-0.1,0.2-0.1,0.2
			C129.2,170.7,129.2,170.7,129.2,170.6 M129.6,164.1L129.6,164.1l-7.4-0.1c0,0.1,0,0.1,0,0.2c-0.1,0.2-0.1,0.4-0.1,0.7
			c0,0.2-0.1,0.3-0.3,0.5v0.1c0,0.4,0,0.7-0.1,0.8c-0.2,0.2-0.2,0.4,0,0.7c0.1,0.2,0.1,0.3,0,0.4c-0.1,0.1-0.1,0.3-0.1,0.7v0.1
			c-0.1,0-0.1,0.1-0.1,0.3h0.1c0-0.1,0-0.1,0.1-0.1v0.3c0,0.6,0,1-0.1,1v0.3l0.1,0.3v0.7c0,0.1,0,0.1,0.1,0.1v0.3l0.1,0.3
			c0.1,0.2,0.1,0.3,0,0.4l-0.1,0.3l0.1,0.3c0,0.2,0,0.3,0.1,0.4v0.3l0.1,0.1c0,0.2,0,0.3,0.1,0.5c0,0.1,0,0.2,0,0.3
			c0,0.1,0.1,0.2,0,0.3l0.1,0.9l0.2,1l0,0.1c0,0.1,0,0.1-0.1,0.2l0,0.3c0.1,0,0.2,0.2,0.3,0.4c0,0.2,0,0.4,0.1,0.6
			c0.1,0.2,0.1,0.3,0,0.6l0.1,0.1c0.2,0.4,0.2,0.6,0.2,0.7c-0.1,0.2,0,0.4,0.3,0.6c0.1,0.1,0.2,0.2,0.2,0.3c0,0.1,0,0.3,0.1,0.6
			l0.1,0.1c-0.1,0-0.1,0.1,0,0.3l0.1-0.1c0-0.1,0-0.1,0.1-0.2l0.1,0.2c0.2,0.5,0.3,0.9,0.3,1l0.1,0.2l0.2,0.2l0.1,0.2l0.2,0.3
			c0,0.1,0.1,0.1,0.2,0.1l0.1,0.2l0.2,0.2c0.1,0.1,0.2,0.2,0.2,0.3l0,0.3l0.2,0.2c0.1,0.1,0.2,0.2,0.3,0.3l0.1,0.2l0.2,0.1
			c0.1,0.2,0.2,0.3,0.4,0.2l0.2,0.3c0,0.1,0.1,0.1,0.2,0.1c0.1,0,0.2,0.1,0.3,0.3l0.1,0.1l0.1-0.1l0-0.1l0.1-0.1l0,0.1
			c0.1,0,0.2,0.2,0.3,0.4l0,0.1c0.1,0,0.2,0,0.4-0.1l0.3,0.1l0.1-0.1c0,0.1,0.1,0.1,0.2,0.1c0.1,0,0.2,0,0.5,0.1l0.4-0.2
			c0,0.1,0.1,0.1,0.3,0l0.6-0.2l0.3,0l0.3,0l1.5-0.7c0.1,0,0.2-0.1,0.3-0.3c0.1-0.3,0.1-0.6,0-0.8c-0.3-0.3-0.5-0.6-0.5-0.7
			l-0.2-0.3l-0.1,0.1l-0.1-0.2l-0.2-0.2l-0.3-0.1c-0.1,0-0.2,0-0.2-0.2c0-0.1-0.1-0.1-0.3,0l0-0.1l0.1-0.2l-0.6-1.2
			c0.1-0.1,0.1-0.4-0.1-0.6l-0.1-0.2c-0.1,0-0.1,0-0.2-0.1l0.1-0.1c-0.1-0.1-0.1-0.3,0-0.4l-0.1-0.2c-0.1-0.2-0.1-0.4-0.1-0.5
			l-0.2-0.5c0-0.1,0-0.3-0.1-0.6c0-0.1,0-0.1,0-0.2c0-0.1,0,0,0.1,0l-0.1-0.9c-0.1-0.2-0.2-0.6-0.2-1.1l-0.1,0c-0.1,0-0.1,0-0.1-0.1
			c0.2-0.2,0.2-0.4,0.1-0.7l0.1-0.2l-0.1,0.1c0-0.1,0-0.1,0.1-0.2c-0.1-0.2-0.2-0.4-0.1-0.6c0-0.1,0-0.3-0.1-0.5
			c0-0.1,0-0.1,0.1-0.2l0-0.1c0-0.2,0-0.4,0-0.6c0-0.2,0-0.4-0.1-0.6l0-0.6c0,0-0.1-0.3-0.1-0.6c0,0,0,0.1,0.1,0.1v1.2
			c0.2,0,0.3-0.1,0.3-0.4v-0.5c0.1-0.1,0.1-0.2,0-0.4c0-0.2,0-0.3,0.1-0.3v-0.8l0.1-0.3v-0.3c0.1-0.1,0.2-0.4,0.2-0.7
			c0-0.1,0-0.1-0.1-0.1c0,0-0.1,0-0.1,0.1c0,0.1,0,0.1-0.1,0.1c0-0.4,0.1-0.3,0.2-1.3c0,0,0.1-0.3,0.3-0.5c0.2-0.2,0.3-0.6,0.3-0.6
			l0.1-0.5c0.1-0.3,0.2-0.3,0.2-0.5l0.1-0.3l0.2-0.3c0.1-0.1,0.2-0.3,0.2-0.4l0.1-0.2h-1l0-0.2L129.6,164.1z M46.5,157.6l-1.1,1.7
			l-1.1-1.7h-1.1l1.7,2.5l-1.7,2.5h1.1l1.2-1.7l1.1,1.7h1.1l-1.7-2.5l1.6-2.5H46.5z M59.2,162.6h1v-5h-1V162.6z M96.8,162.6h1v-5h-1
			V162.6z M143,162.6h1v-5h-1V162.6z M50.4,161.4c-0.2-0.2-0.3-0.5-0.3-0.9v-0.8c0-0.4,0.1-0.7,0.3-0.9c0.2-0.2,0.5-0.3,0.8-0.3
			c0.3,0,0.6,0.1,0.8,0.3c0.2,0.2,0.3,0.5,0.3,0.9v0.8c0,0.4-0.1,0.7-0.3,0.9c-0.2,0.2-0.5,0.3-0.8,0.3
			C50.9,161.7,50.6,161.6,50.4,161.4 M50.1,157.8c-0.3,0.2-0.5,0.4-0.7,0.7c-0.2,0.3-0.2,0.7-0.2,1.2v0.8c0,0.5,0.1,0.9,0.2,1.2
			c0.2,0.3,0.4,0.6,0.7,0.7c0.3,0.2,0.7,0.3,1.1,0.3c0.4,0,0.8-0.1,1.1-0.3c0.3-0.2,0.5-0.4,0.7-0.7c0.2-0.3,0.2-0.7,0.2-1.2v-0.8
			c0-0.5-0.1-0.8-0.2-1.2c-0.2-0.3-0.4-0.6-0.7-0.7c-0.3-0.2-0.7-0.3-1.1-0.3C50.8,157.5,50.4,157.6,50.1,157.8 M63.2,157.8
			c-0.3,0.2-0.6,0.4-0.7,0.7c-0.2,0.3-0.3,0.7-0.3,1.2v0.8c0,0.5,0.1,0.9,0.3,1.2c0.2,0.3,0.4,0.6,0.7,0.7c0.3,0.2,0.5,0.3,0.5,0.3
			h0.7c0.3,0,0.5,0,0.7-0.1c0.2-0.1,0.4-0.1,0.6-0.3c0.2-0.1,0.3-0.3,0.5-0.4l-0.7-0.7c-0.1,0.2-0.3,0.3-0.5,0.4
			c-0.2,0.1-0.4,0.1-0.6,0.1c-0.4,0-0.7-0.1-0.9-0.3c-0.2-0.2-0.3-0.5-0.3-0.9v-0.8c0-0.4,0.1-0.7,0.3-0.9c0.2-0.2,0.5-0.3,0.9-0.3
			c0.2,0,0.4,0,0.6,0.1c0.2,0.1,0.4,0.2,0.5,0.4l0.7-0.6c-0.1-0.2-0.3-0.3-0.5-0.4c-0.2-0.1-0.4-0.2-0.6-0.3
			c-0.2-0.1-0.5-0.1-0.7-0.1C63.9,157.5,63.5,157.6,63.2,157.8 M80,158.8c0.2-0.2,0.5-0.4,0.9-0.4c0.3,0,0.5,0.1,0.7,0.3
			c0.2,0.2,0.3,0.5,0.3,0.9h-2.2C79.7,159.3,79.8,159,80,158.8 M79.7,157.8c-0.3,0.2-0.6,0.4-0.7,0.8c-0.2,0.3-0.2,0.8-0.2,1.3v0.6
			c0,0.5,0.1,0.9,0.3,1.2c0.2,0.3,0.4,0.6,0.7,0.8c0.3,0.2,0.5,0.3,0.5,0.3h0.7c0.3,0,0.6-0.1,0.9-0.2c0.3-0.1,0.6-0.3,0.8-0.6
			l-0.6-0.6c-0.2,0.1-0.3,0.3-0.5,0.3c-0.2,0.1-0.4,0.1-0.6,0.1c-0.4,0-0.7-0.1-0.9-0.3c-0.2-0.2-0.3-0.5-0.3-0.9h3.1v-0.3
			c0-0.6-0.1-1-0.2-1.4c-0.2-0.4-0.4-0.7-0.7-0.9c-0.3-0.2-0.7-0.3-1.1-0.3C80.4,157.5,80,157.6,79.7,157.8 M101.4,157.8
			c-0.2,0.1-0.4,0.3-0.5,0.5v-0.7h-1v5h1v-3.2c0-0.3,0.1-0.5,0.3-0.7c0.2-0.2,0.4-0.3,0.7-0.3c0.3,0,0.6,0.1,0.8,0.3
			c0.2,0.2,0.3,0.5,0.3,0.8v3h1v-3c0-0.6-0.1-1.2-0.4-1.5c-0.3-0.4-0.7-0.5-1.3-0.5C101.9,157.5,101.6,157.6,101.4,157.8
			 M125.6,161.7c-0.2-0.1-0.3-0.3-0.3-0.6c0-0.2,0.1-0.4,0.2-0.5c0.1-0.1,0.3-0.2,0.6-0.2h1.4v0.9c0,0.2-0.1,0.3-0.3,0.4
			c-0.2,0.1-0.5,0.1-0.8,0.1C126.1,161.8,125.8,161.8,125.6,161.7 M125.5,157.7c-0.3,0.1-0.6,0.3-0.7,0.5l0.7,0.5
			c0.1-0.1,0.3-0.2,0.5-0.3c0.2-0.1,0.4-0.1,0.6-0.1c0.3,0,0.6,0.1,0.7,0.3c0.2,0.2,0.3,0.4,0.3,0.8v0.2h-1.4c-0.6,0-1,0.1-1.3,0.4
			c-0.3,0.2-0.4,0.6-0.4,1.1c0,0.5,0.2,0.9,0.5,1.2c0.3,0.3,0.8,0.4,1.4,0.4c0.2,0,0.4,0,0.6-0.1c0.2,0,0.3-0.1,0.4-0.2
			c0.1-0.1,0.2-0.1,0.2-0.2v0.4h0.9v-3.2c0-0.4-0.1-0.7-0.2-1c-0.2-0.3-0.4-0.5-0.7-0.6c-0.3-0.1-0.6-0.2-1.1-0.2
			C126.1,157.5,125.8,157.6,125.5,157.7 M132.1,157.8c-0.2,0.1-0.4,0.3-0.5,0.5v-0.7h-1v5h1v-3.2c0-0.3,0.1-0.5,0.3-0.7
			c0.2-0.2,0.4-0.3,0.7-0.3c0.3,0,0.6,0.1,0.8,0.3c0.2,0.2,0.3,0.5,0.3,0.8v3h1v-3c0-0.6-0.1-1.2-0.4-1.5c-0.3-0.4-0.7-0.5-1.3-0.5
			C132.6,157.5,132.3,157.6,132.1,157.8 M138.3,157.8c-0.2,0.1-0.4,0.3-0.5,0.5v-0.7h-1v5h1v-3.2c0-0.3,0.1-0.5,0.3-0.7
			c0.2-0.2,0.4-0.3,0.7-0.3c0.3,0,0.6,0.1,0.8,0.3c0.2,0.2,0.3,0.5,0.3,0.8v3h1v-3c0-0.6-0.1-1.2-0.4-1.5c-0.3-0.4-0.7-0.5-1.3-0.5
			C138.8,157.5,138.5,157.6,138.3,157.8 M147.6,157.8c-0.2,0.1-0.4,0.3-0.5,0.5v-0.7h-1v5h1v-3.2c0-0.3,0.1-0.5,0.3-0.7
			c0.2-0.2,0.4-0.3,0.7-0.3c0.3,0,0.6,0.1,0.8,0.3c0.2,0.2,0.3,0.5,0.3,0.8v3h1v-3c0-0.6-0.1-1.2-0.4-1.5c-0.3-0.4-0.7-0.5-1.3-0.5
			C148.1,157.5,147.8,157.6,147.6,157.8 M168.5,161.4c-0.2-0.2-0.3-0.5-0.3-0.9v-0.8c0-0.4,0.1-0.7,0.3-0.9c0.2-0.2,0.5-0.3,0.8-0.3
			c0.3,0,0.6,0.1,0.8,0.3c0.2,0.2,0.3,0.5,0.3,0.9v0.8c0,0.4-0.1,0.7-0.3,0.9c-0.2,0.2-0.5,0.3-0.8,0.3
			C169,161.7,168.7,161.6,168.5,161.4 M168.2,157.8c-0.3,0.2-0.5,0.4-0.7,0.7c-0.2,0.3-0.2,0.7-0.2,1.2v0.8c0,0.5,0.1,0.9,0.2,1.2
			c0.2,0.3,0.4,0.6,0.7,0.7c0.3,0.2,0.7,0.3,1.1,0.3c0.4,0,0.8-0.1,1.1-0.3c0.3-0.2,0.5-0.4,0.7-0.7c0.2-0.3,0.2-0.7,0.2-1.2v-0.8
			c0-0.5-0.1-0.8-0.2-1.2c-0.2-0.3-0.4-0.6-0.7-0.7c-0.3-0.2-0.7-0.3-1.1-0.3C168.9,157.5,168.5,157.6,168.2,157.8 M174.9,157.8
			c-0.2,0.1-0.4,0.3-0.5,0.5v-0.7h-1v5h1v-3.2c0-0.3,0.1-0.5,0.3-0.7c0.2-0.2,0.4-0.3,0.7-0.3c0.3,0,0.6,0.1,0.8,0.3
			c0.2,0.2,0.3,0.5,0.3,0.8v3h1v-3c0-0.6-0.1-1.2-0.4-1.5c-0.3-0.4-0.7-0.5-1.3-0.5C175.4,157.5,175.2,157.6,174.9,157.8
			 M184.3,158.8c0.2-0.2,0.5-0.4,0.9-0.4c0.3,0,0.5,0.1,0.7,0.3c0.2,0.2,0.3,0.5,0.3,0.9H184C184,159.3,184.1,159,184.3,158.8
			 M184.1,157.8c-0.3,0.2-0.6,0.4-0.7,0.8c-0.2,0.3-0.2,0.8-0.2,1.3v0.6c0,0.5,0.1,0.9,0.3,1.2c0.2,0.3,0.4,0.6,0.7,0.8
			c0.3,0.2,0.5,0.3,0.5,0.3h0.7c0.3,0,0.6-0.1,0.9-0.2c0.3-0.1,0.6-0.3,0.8-0.6l-0.6-0.6c-0.2,0.1-0.3,0.3-0.5,0.3
			c-0.2,0.1-0.4,0.1-0.6,0.1c-0.4,0-0.7-0.1-0.9-0.3c-0.2-0.2-0.3-0.5-0.3-0.9h3.1v-0.3c0-0.6-0.1-1-0.2-1.4
			c-0.2-0.4-0.4-0.7-0.7-0.9c-0.3-0.2-0.7-0.3-1.1-0.3C184.8,157.5,184.4,157.6,184.1,157.8 M190.7,157.8c-0.2,0.1-0.4,0.3-0.5,0.5
			v-0.7h-1v5h1v-3.2c0-0.3,0.1-0.5,0.3-0.7c0.2-0.2,0.4-0.3,0.7-0.3c0.2,0,0.3,0,0.5,0.1c0.1,0.1,0.2,0.1,0.3,0.2l0.6-0.9
			c-0.1-0.1-0.3-0.2-0.5-0.3c-0.2-0.1-0.4-0.1-0.6-0.1C191.2,157.5,190.9,157.6,190.7,157.8 M195.1,158.8c0.2-0.2,0.5-0.4,0.9-0.4
			c0.3,0,0.5,0.1,0.7,0.3c0.2,0.2,0.3,0.5,0.3,0.9h-2.2C194.8,159.3,194.9,159,195.1,158.8 M194.8,157.8c-0.3,0.2-0.6,0.4-0.7,0.8
			c-0.2,0.3-0.2,0.8-0.2,1.3v0.6c0,0.5,0.1,0.9,0.3,1.2c0.2,0.3,0.4,0.6,0.7,0.8c0.3,0.2,0.5,0.3,0.5,0.3h0.7c0.3,0,0.6-0.1,0.9-0.2
			c0.3-0.1,0.6-0.3,0.8-0.6l-0.6-0.6c-0.2,0.1-0.3,0.3-0.5,0.3c-0.2,0.1-0.4,0.1-0.6,0.1c-0.4,0-0.7-0.1-0.9-0.3
			c-0.2-0.2-0.3-0.5-0.3-0.9h3.1v-0.3c0-0.6-0.1-1-0.2-1.4c-0.2-0.4-0.4-0.7-0.7-0.9c-0.3-0.2-0.7-0.3-1.1-0.3
			C195.5,157.5,195.1,157.6,194.8,157.8 M201.4,157.8c-0.2,0.1-0.4,0.3-0.5,0.5v-0.7h-1v5h1v-3.2c0-0.3,0.1-0.5,0.3-0.7
			c0.2-0.2,0.4-0.3,0.7-0.3c0.3,0,0.6,0.1,0.8,0.3c0.2,0.2,0.3,0.5,0.3,0.8v3h1v-3c0-0.6-0.1-1.2-0.4-1.5c-0.3-0.4-0.7-0.5-1.3-0.5
			C201.9,157.5,201.7,157.6,201.4,157.8 M206.9,157.8c-0.3,0.2-0.6,0.4-0.7,0.7c-0.2,0.3-0.3,0.7-0.3,1.2v0.8c0,0.5,0.1,0.9,0.3,1.2
			c0.2,0.3,0.4,0.6,0.7,0.7c0.3,0.2,0.5,0.3,0.5,0.3h0.7c0.3,0,0.5,0,0.7-0.1c0.2-0.1,0.4-0.1,0.6-0.3c0.2-0.1,0.3-0.3,0.5-0.4
			l-0.7-0.7c-0.1,0.2-0.3,0.3-0.5,0.4c-0.2,0.1-0.4,0.1-0.6,0.1c-0.4,0-0.7-0.1-0.9-0.3c-0.2-0.2-0.3-0.5-0.3-0.9v-0.8
			c0-0.4,0.1-0.7,0.3-0.9c0.2-0.2,0.5-0.3,0.9-0.3c0.2,0,0.4,0,0.6,0.1c0.2,0.1,0.4,0.2,0.5,0.4l0.7-0.6c-0.1-0.2-0.3-0.3-0.5-0.4
			c-0.2-0.1-0.4-0.2-0.6-0.3c-0.2-0.1-0.5-0.1-0.7-0.1C207.7,157.5,207.3,157.6,206.9,157.8 M212.8,158.8c0.2-0.2,0.5-0.4,0.9-0.4
			c0.3,0,0.5,0.1,0.7,0.3c0.2,0.2,0.3,0.5,0.3,0.9h-2.2C212.5,159.3,212.6,159,212.8,158.8 M212.5,157.8c-0.3,0.2-0.6,0.4-0.7,0.8
			c-0.2,0.3-0.2,0.8-0.2,1.3v0.6c0,0.5,0.1,0.9,0.3,1.2c0.2,0.3,0.4,0.6,0.7,0.8c0.3,0.2,0.5,0.3,0.5,0.3h0.7c0.3,0,0.6-0.1,0.9-0.2
			c0.3-0.1,0.6-0.3,0.8-0.6l-0.6-0.6c-0.2,0.1-0.3,0.3-0.5,0.3c-0.2,0.1-0.4,0.1-0.6,0.1c-0.4,0-0.7-0.1-0.9-0.3
			c-0.2-0.2-0.3-0.5-0.3-0.9h3.1v-0.3c0-0.6-0.1-1-0.2-1.4c-0.2-0.4-0.4-0.7-0.7-0.9c-0.3-0.2-0.7-0.3-1.1-0.3
			C213.2,157.5,212.8,157.6,212.5,157.8 M107.2,161.5c-0.2-0.2-0.3-0.5-0.3-0.8v-1.1c0-0.4,0.1-0.7,0.3-0.9c0.2-0.2,0.4-0.3,0.8-0.3
			c0.2,0,0.4,0,0.5,0.1c0.1,0.1,0.3,0.2,0.3,0.3c0.1,0.2,0.1,0.3,0.1,0.5v1.3c0,0.2,0,0.4-0.1,0.6c-0.1,0.2-0.2,0.3-0.3,0.4
			c-0.1,0.1-0.3,0.1-0.5,0.1C107.6,161.8,107.4,161.7,107.2,161.5 M106.7,157.7c-0.3,0.2-0.4,0.4-0.6,0.7c-0.1,0.3-0.2,0.7-0.2,1.1
			v1.1c0,0.4,0.1,0.8,0.2,1.1c0.1,0.3,0.3,0.5,0.6,0.7c0.3,0.2,0.6,0.2,0.9,0.2c0.3,0,0.6-0.1,0.8-0.2c0.2-0.1,0.3-0.3,0.4-0.5v0.6
			c0,0.4-0.1,0.7-0.3,0.9c-0.2,0.2-0.5,0.3-0.9,0.3c-0.2,0-0.4,0-0.6-0.1c-0.2-0.1-0.3-0.2-0.5-0.4l-0.7,0.6
			c0.2,0.3,0.4,0.4,0.7,0.6c0.3,0.1,0.4,0.2,0.4,0.2h0.6c0.5,0,0.8-0.1,1.2-0.3c0.3-0.2,0.6-0.4,0.7-0.7c0.2-0.3,0.3-0.7,0.3-1.2
			v-4.8h-1v0.6c-0.1-0.2-0.3-0.4-0.5-0.5c-0.2-0.2-0.5-0.2-0.8-0.2C107.3,157.5,107,157.6,106.7,157.7 M153.4,161.5
			c-0.2-0.2-0.3-0.5-0.3-0.8v-1.1c0-0.4,0.1-0.7,0.3-0.9c0.2-0.2,0.4-0.3,0.8-0.3c0.2,0,0.4,0,0.5,0.1c0.1,0.1,0.3,0.2,0.3,0.3
			c0.1,0.2,0.1,0.3,0.1,0.5v1.3c0,0.2,0,0.4-0.1,0.6c-0.1,0.2-0.2,0.3-0.3,0.4c-0.1,0.1-0.3,0.1-0.5,0.1
			C153.8,161.8,153.6,161.7,153.4,161.5 M152.9,157.7c-0.3,0.2-0.4,0.4-0.6,0.7c-0.1,0.3-0.2,0.7-0.2,1.1v1.1c0,0.4,0.1,0.8,0.2,1.1
			c0.1,0.3,0.3,0.5,0.6,0.7c0.3,0.2,0.6,0.2,0.9,0.2c0.3,0,0.6-0.1,0.8-0.2c0.2-0.1,0.3-0.3,0.4-0.5v0.6c0,0.4-0.1,0.7-0.3,0.9
			c-0.2,0.2-0.5,0.3-0.9,0.3c-0.2,0-0.4,0-0.6-0.1c-0.2-0.1-0.3-0.2-0.5-0.4l-0.7,0.6c0.2,0.3,0.4,0.4,0.7,0.6
			c0.3,0.1,0.4,0.2,0.4,0.2h0.6c0.5,0,0.8-0.1,1.2-0.3c0.3-0.2,0.6-0.4,0.7-0.7c0.2-0.3,0.3-0.7,0.3-1.2v-4.8h-1v0.6
			c-0.1-0.2-0.3-0.4-0.5-0.5c-0.2-0.2-0.5-0.2-0.8-0.2C153.5,157.5,153.2,157.6,152.9,157.7 M55.4,156.1v1.5h-0.5v0.9h0.5v2.8
			c0,0.4,0.1,0.8,0.3,1c0.2,0.2,0.5,0.3,0.9,0.3h0.6v-0.9h-0.5c-0.1,0-0.2,0-0.2-0.1c0-0.1-0.1-0.2-0.1-0.3v-2.8h0.8v-0.9h-0.8v-1.5
			H55.4z M38.2,155.6h-1v7h0.5h4v-0.9h-3.5v-2.1h3v-0.9h-3v-2.1h3.5v-0.9H38.2z M59.2,156.6h1v-1h-1V156.6z M76.7,155.6l-1.2,5.5
			l-1.4-5.5h-0.7l-1.4,5.5l-1.2-5.5h-1l1.7,7h1l1.3-4.9l1.3,4.9h1l1.7-7H76.7z M85.9,161.5c-0.2-0.2-0.3-0.5-0.3-0.8v-1.1
			c0-0.4,0.1-0.7,0.3-0.9c0.2-0.2,0.4-0.3,0.8-0.3c0.2,0,0.4,0,0.5,0.1c0.1,0.1,0.3,0.2,0.3,0.3c0.1,0.2,0.1,0.3,0.1,0.5v1.3
			c0,0.2,0,0.4-0.1,0.6c-0.1,0.2-0.2,0.3-0.3,0.4c-0.1,0.1-0.3,0.1-0.5,0.1C86.3,161.8,86.1,161.7,85.9,161.5 M87.6,155.6v2.6
			c-0.1-0.2-0.3-0.4-0.5-0.5c-0.2-0.2-0.5-0.2-0.8-0.2c-0.4,0-0.7,0.1-0.9,0.2c-0.3,0.2-0.4,0.4-0.6,0.7c-0.1,0.3-0.2,0.7-0.2,1.1
			v1.1c0,0.4,0.1,0.8,0.2,1.1c0.1,0.3,0.3,0.5,0.6,0.7c0.3,0.2,0.6,0.2,0.9,0.2c0.3,0,0.6-0.1,0.8-0.2c0.2-0.1,0.3-0.3,0.4-0.5v0.6
			h1v-7H87.6z M91.9,161.5c-0.2-0.2-0.3-0.5-0.3-0.8v-1.1c0-0.4,0.1-0.7,0.3-0.9c0.2-0.2,0.4-0.3,0.8-0.3c0.2,0,0.4,0,0.5,0.1
			c0.1,0.1,0.3,0.2,0.3,0.3c0.1,0.2,0.1,0.3,0.1,0.5v1.3c0,0.2,0,0.4-0.1,0.6c-0.1,0.2-0.2,0.3-0.3,0.4c-0.1,0.1-0.3,0.1-0.5,0.1
			C92.3,161.8,92.1,161.7,91.9,161.5 M93.6,155.6v2.6c-0.1-0.2-0.3-0.4-0.5-0.5c-0.2-0.2-0.5-0.2-0.8-0.2c-0.4,0-0.7,0.1-0.9,0.2
			c-0.3,0.2-0.4,0.4-0.6,0.7c-0.1,0.3-0.2,0.7-0.2,1.1v1.1c0,0.4,0.1,0.8,0.2,1.1c0.1,0.3,0.3,0.5,0.6,0.7c0.3,0.2,0.6,0.2,0.9,0.2
			c0.3,0,0.6-0.1,0.8-0.2c0.2-0.1,0.3-0.3,0.4-0.5v0.6h1v-7H93.6z M96.8,156.6h1v-1h-1V156.6z M117.3,156.5c0.2,0,0.4,0,0.6,0.2
			c0.2,0.1,0.3,0.2,0.4,0.4c0.1,0.2,0.1,0.4,0.1,0.6c0,0.2,0,0.4-0.1,0.6c-0.1,0.2-0.2,0.3-0.4,0.4c-0.2,0.1-0.3,0.1-0.6,0.1h-1.8
			v-2.4H117.3z M115.5,155.6h-1v7h1v-2.7h1.7c0.4,0,0.8-0.1,1.1-0.3c0.3-0.2,0.6-0.4,0.7-0.7c0.2-0.3,0.3-0.7,0.3-1.1
			s-0.1-0.8-0.3-1.1c-0.2-0.3-0.4-0.6-0.7-0.8c-0.3-0.2-0.7-0.3-1.1-0.3H115.5z M121.2,155.6v5.7c0,0.4,0.1,0.7,0.3,1
			c0.2,0.2,0.5,0.3,0.9,0.3h0.6v-0.9h-0.5c-0.1,0-0.2,0-0.2-0.1c-0.1-0.1-0.1-0.2-0.1-0.3v-5.7H121.2z M143,156.6h1v-1h-1V156.6z
			 M181,155.6c-0.4,0-0.7,0.1-0.9,0.3c-0.2,0.2-0.3,0.6-0.3,1v0.7h-0.5v0.8h0.5v4.2h1v-4.2h1v-0.8h-1v-0.7c0-0.1,0-0.2,0.1-0.3
			c0-0.1,0.1-0.1,0.2-0.1h0.7v-0.9H181z M161.7,155.8c-0.4,0.2-0.7,0.5-0.9,0.9c-0.2,0.4-0.3,0.9-0.3,1.4v1.9c0,0.5,0.1,1,0.3,1.4
			c0.2,0.4,0.5,0.7,0.9,0.9c0.4,0.2,0.6,0.3,0.6,0.3h0.7c0.4,0,0.8-0.1,1.1-0.3c0.3-0.2,0.6-0.4,0.8-0.7c0.2-0.3,0.4-0.7,0.5-1.1h-1
			c-0.1,0.2-0.2,0.4-0.3,0.6c-0.1,0.2-0.3,0.3-0.5,0.4c-0.2,0.1-0.4,0.1-0.6,0.1c-0.3,0-0.5-0.1-0.8-0.2c-0.2-0.1-0.4-0.3-0.5-0.6
			c-0.1-0.2-0.2-0.5-0.2-0.9v-1.9c0-0.3,0.1-0.6,0.2-0.9c0.1-0.2,0.3-0.4,0.5-0.6c0.2-0.1,0.5-0.2,0.8-0.2c0.2,0,0.4,0,0.6,0.1
			c0.2,0.1,0.4,0.2,0.5,0.4c0.1,0.2,0.2,0.4,0.3,0.6h1c-0.1-0.4-0.2-0.8-0.5-1.1c-0.2-0.3-0.5-0.6-0.8-0.7c-0.3-0.2-0.7-0.3-1.1-0.3
			C162.5,155.5,162.1,155.6,161.7,155.8 M136.6,151.2v0.3h-0.1L136.6,151.2z M216.5,136.1l0.1-0.1l0.1,0.1c0,0.2,0,0.3-0.1,0.3
			C216.4,136.4,216.3,136.3,216.5,136.1 M142.7,137.8l0.1-0.3l0.1-0.3c-0.1,0-0.1,0,0-0.1c0-0.4,0.2-0.7,0.5-0.8v-0.1l0.3-0.5
			l0.1-0.1c0-0.1,0-0.1,0.1-0.1s0.1,0,0.1,0.1v0.1c-0.1,0-0.2,0.2-0.4,0.7l-0.1,0.3l-0.3,0.3c-0.1,0.3-0.2,0.5-0.4,0.7L142.7,137.8
			l-0.5,1v0.1c-0.2,0.2-0.3,0.3-0.3,0.4l-0.3,0.5l-0.4,0.8l-0.5,0.7l-0.3,0.5c-0.2,0.6-0.4,1.1-0.8,1.4l-0.3,0.5l-0.4,0.7l-0.4,0.8
			c-0.1,0.3-0.2,0.5-0.4,0.7c-0.1,0.1-0.1,0.2-0.1,0.4c0,0.1-0.1,0.2-0.3,0.4v0.3l-0.3,0.3l-0.4,0.9l-0.4,0.4l-0.3,0.8
			c-0.2,0.2-0.3,0.3-0.3,0.4l-0.3,0.5v0.1l-0.1,0.3l-0.3,0.4l-0.3,0.5l-0.5,1.2l-0.5,1l-0.1,0.3c0,0.2,0,0.3-0.1,0.4
			c0,0.1,0,0.1-0.1,0.1v-0.1c0.1-0.1,0.1-0.3,0.1-0.5c0-0.1,0.1-0.2,0.3-0.4l0.1-0.3l0.1-0.3c0.1-0.1,0.1-0.3,0.1-0.7l0.3-0.3
			l0.3-0.5l0.3-0.4V151l0.3-0.5c-0.1,0,0-0.1,0.1-0.3c0.1-0.1,0.1-0.2,0.1-0.4l0.1-0.3l0.3-0.7c0.3-0.6,0.4-1,0.5-1.2l0.4-0.4
			c0-0.2,0-0.3,0.1-0.4v-0.1c-0.1-0.1-0.1-0.1,0-0.1l0.3-0.3c0.2-0.3,0.4-0.7,0.5-1.2l0.3-0.3l0.4-0.8l0.1-0.3
			c0-0.3,0.1-0.4,0.3-0.4l0.1-0.3c-0.1-0.1,0-0.1,0.1-0.1V143l0.5-1c0-0.2,0-0.3,0.1-0.4l0.1-0.3l0.3-0.3l0.1-0.3
			c0.1,0,0.1,0,0.1-0.1v-0.3l0.4-0.4l0.1-0.3v-0.3l0.3-0.5l0.3-0.1l0.1-0.3l0.3-0.5v-0.1l0.1,0.1c0-0.2,0-0.3,0.1-0.3
			c0,0,0,0.1,0,0.1C142.6,137.8,142.6,137.8,142.7,137.8 M144.1,135.3c0.1-0.1,0.1-0.2,0.1-0.4v-0.1c0.1,0,0.2-0.2,0.4-0.7l0.4-0.5
			c0.1,0,0.1,0,0-0.1l0.1-0.3c0.1,0.1,0.2,0.1,0.4,0.1c0,0.1-0.1,0.2-0.3,0.4l-0.1,0.1v0.1c0,0.1,0,0.1,0.1,0.1l0.3-0.3l0.1-0.3
			c0,0.1,0,0.1,0.1,0c0-0.1,0-0.1,0.1-0.1v0.3c0,0,0,0-0.1,0.1c0.1,0,0,0.1-0.3,0.4h-0.1c0,0.1,0,0.2,0.1,0.2c0.1,0,0.1,0,0.1-0.1
			h0.1v0.3h-0.1v-0.1c-0.1,0-0.1,0-0.1,0.1v0.1l-0.1,0.1c-0.1,0-0.2,0-0.3-0.1v-0.1c0,0.1,0,0.1-0.1,0.1v0.1l-0.1,0.3h-0.1V135
			c0-0.1,0-0.1,0.1-0.1c0.1-0.1,0.1-0.3,0.1-0.8h-0.1c0,0.3,0,0.4-0.1,0.5h-0.1c0,0.1,0,0.1-0.1,0.1c0,0.3,0,0.4-0.1,0.5l-0.1,0.1
			L144.1,135.3z M238.2,118.5c0-0.1,0-0.1,0.1-0.1v0.1l-0.1,0.1V118.5z M176.6,118.3h0.1c0,0.1,0,0.1,0.1,0.1v0.1
			c0.1,0.4,0.1,0.7,0.1,0.7s-0.1,0.5-0.3,1.4l-0.1,0.1l-0.8,0.9l-0.8,0.8l-0.8,0.9c-0.2,0.2-0.3,0.3-0.3,0.4
			c-0.1,0.3-0.2,0.4-0.4,0.4c-0.2,0-0.4,0.2-0.5,0.7l-0.4,0.4c-0.3,0.1-0.5,0.3-0.7,0.7l-0.3,0.3l-0.4,0.4c-0.1-0.1-0.1,0-0.1,0.1
			c-0.1,0.3-0.2,0.3-0.3,0.1c-0.3,0-0.4,0.2-0.4,0.5l-0.1,0.3c0-0.1-0.1,0-0.3,0.1c-0.1,0.4-0.2,0.5-0.4,0.5l-0.3,0.1l-0.3,0.4
			c0-0.1,0-0.1-0.1-0.1l-0.1-0.1l-0.1,0.3c-0.1,0.4-0.2,0.5-0.3,0.5l-0.3,0.3c-0.1,0.1-0.3,0.2-0.7,0.5c-0.4,0.2-0.6,0.6-0.8,1.1
			c-0.1,0.1-0.3,0.1-0.7,0.1c-0.1,0-0.2,0.1-0.4,0.3c-0.7,1-1.5,1.8-2.5,2.2l-0.3,0.1c-0.1,0.4-0.3,0.6-0.7,0.8
			c-0.2,0.1-0.4,0.3-0.8,0.7c-0.1,0.3-0.3,0.4-0.7,0.4c-0.4,0-0.8,0.2-1.2,0.7c-0.8,0.6-1.2,1.1-1.2,1.4l-0.3,0.3
			c-0.1-0.3-0.2-0.3-0.4-0.1l-0.4,0.5c-0.2,0.2-0.3,0.2-0.3,0c0-0.1-0.1,0-0.3,0.1c-0.3,0.3-0.4,0.4-0.5,0.3
			c-0.1,0.4-0.3,0.5-0.5,0.4c-0.1-0.1-0.1,0-0.1,0.3l-0.3,0.3c-0.1,0.1-0.1,0.1-0.1,0c-0.1-0.2-0.2-0.2-0.3-0.2
			c-0.1,0-0.2,0.2-0.3,0.3l-0.1,0.1c-0.1,0.3-0.2,0.3-0.4,0.1c-0.1-0.1-0.2,0-0.3,0.3l-0.4,0.4c-0.2,0.2-0.3,0.2-0.4,0.1
			c-0.2,0.2-0.4,0.2-0.7,0c-0.2-0.1-0.4-0.1-0.8-0.1c-0.1,0-0.4-0.3-0.9-0.8l-0.3-0.1c-0.1,0-0.1-0.1-0.1-0.3c0-0.3,0-0.4,0.1-0.5
			l0.3-0.4c0.1-0.3,0.3-0.5,0.5-0.8c0.3-0.3,0.4-0.6,0.5-0.9c0.2,0,0.4-0.3,0.8-0.9v-0.1c0.4,0,0.7-0.4,1.1-1.2c0-0.1,0-0.2,0.1-0.3
			c0.1-0.1,0.2-0.1,0.3,0.2c0,0.1,0,0.1,0.1,0v-0.1c0.1-0.4,0.2-0.7,0.3-0.9c0.1-0.1,0.3-0.2,0.5-0.2c0.6-0.4,1.2-0.8,1.9-1l0.3-0.3
			c0.2-0.5,0.4-0.8,0.7-0.8c0.2,0,0.3,0,0.4-0.1c0-0.2,0-0.3,0.1-0.4l0.3-0.1l0.3-0.4c0,0.1,0,0.1,0.1,0.1c0.1,0,0.1-0.1,0.1-0.3
			c0.2-0.3,0.3-0.4,0.4-0.4c0.2,0.2,0.3,0.2,0.3,0l0.3-0.7c0.1,0.1,0.2,0,0.4-0.1l0.3-0.3c0.1,0,0.2-0.1,0.4-0.3
			c0.4-0.7,0.9-1.2,1.3-1.4c0.4-0.3,0.9-0.5,1.4-0.8l0.4-0.4c0.2-0.3,0.4-0.4,0.5-0.4c0.1,0,0.2-0.1,0.4-0.3
			c0.2,0.2,0.3,0.1,0.4-0.3c0.2-0.4,0.4-0.7,0.5-0.7c0.3,0,0.4-0.1,0.5-0.4l0.4-0.4c0.1,0,0.2-0.1,0.3-0.4l0.1,0.5h0.1l0.5-0.7
			c0.2-0.2,0.3-0.2,0.4,0c0.1,0.1,0.1,0.1,0.1,0c0-0.4,0.1-0.7,0.3-0.7c0.1,0.1,0.2,0.1,0.3,0c0.1,0.1,0.1,0.1,0.1,0
			c0.2-0.3,0.5-0.5,0.9-0.8c0.4-0.3,0.7-0.3,0.8-0.3c0.1,0,0.1,0,0.1-0.1c0-0.1,0-0.1,0.1-0.1c0.4-0.3,0.6-0.4,0.7-0.3h0.1l0.4-0.5
			c0-0.1,0-0.2,0.1-0.2c0,0,0.1,0,0.2,0.1c0.2,0.1,0.4,0,0.5-0.1c0.2-0.2,0.3-0.3,0.4-0.3c0.4,0,0.9-0.3,1.6-1
			c0.2-0.2,0.3-0.2,0.4,0c0.1,0.1,0.2,0,0.3-0.4c0.2,0,0.3,0,0.4,0.1c0,0,0.1,0,0.1,0C176.4,118.4,176.5,118.4,176.6,118.3
			 M173.7,109.1c0-0.1,0-0.1,0.1,0c0.1,0.1,0.2,0.1,0.3,0c0.1-0.1,0.2,0,0.3,0.1c0.2-0.2,0.4-0.2,0.7,0c0.3,0.2,0.5,0.2,0.7,0h0.1
			c0.1,0,0.1,0.1,0.1,0.3c-0.1,0-0.1,0-0.1,0.1c0,0,0.1,0,0.2-0.1l0.3,0.3h0.3v0.8c0,0.1,0,0.1,0.1,0.1c-0.2,0.2-0.2,0.4-0.1,0.5
			c0,0.3,0,0.6-0.1,0.7l-0.1,0.3c0,0.2,0,0.3-0.1,0.4c-0.4,0.3-0.5,0.7-0.5,1.4c0,0.9-0.1,1.3-0.3,1.3l-0.3-0.1
			c-0.2,0-0.3,0.1-0.3,0.3c0,0.2-0.1,0.3-0.3,0.3l-0.1,0.1c-0.1-0.1-0.1,0-0.1,0.1c-0.6,0.2-1,0.3-1.1,0.4c-0.3-0.3-0.4-0.2-0.4,0.1
			c-0.1,0.1-0.2,0.1-0.4,0l-0.3,0.1l-0.1,0.3c-0.1,0.1-0.2,0.1-0.3,0l-0.3,0.3c-0.1,0-0.2,0-0.3,0.1c-0.1,0-0.2,0.1-0.2,0.2
			l-0.3,0.1c-0.2,0-0.3,0-0.3-0.1h-0.1l-0.1,0.3c0,0.2,0,0.3-0.1,0.3c-0.1,0-0.1,0-0.1-0.1c-0.1-0.1-0.1,0-0.1,0.1
			c0,0.1-0.1,0.2-0.3,0.3c-0.2,0.1-0.3,0.1-0.4,0c-0.1,0-0.2,0.1-0.4,0.3c-0.2,0.2-0.3,0.3-0.4,0.3l-0.4,0.4c-0.1,0.1-0.1,0.1-0.1,0
			c-0.2,0-0.3,0-0.4,0.1c-0.1,0-0.1,0-0.1,0.1c0,0.1-0.1,0-0.3-0.1c-0.1,0-0.2,0.1-0.3,0.4c-0.2,0.3-0.4,0.5-0.8,0.7l-0.7,0.3
			l-0.1,0.1c0,0.1,0,0.2-0.1,0.2c-0.1,0-0.1,0-0.1-0.1c0-0.1,0-0.1-0.1,0l-0.4,0.4l-0.4,0.4c-0.4,0.2-0.7,0.3-0.7,0.4
			c-0.2,0.3-0.3,0.4-0.4,0.3s-0.1,0-0.1,0.3l-0.1,0.1c-0.1-0.3-0.2-0.3-0.2-0.3c0,0.1-0.1,0.2-0.1,0.4c-0.2,0.2-0.3,0.2-0.4,0.1
			h-0.4c-0.1,0-0.1,0-0.1,0.1l-0.3,0.5c-0.4,0.5-0.9,1-1.7,1.4c-0.2,0.2-0.3,0.2-0.3,0.1c-0.1-0.1-0.2-0.1-0.3,0.1
			c-0.1,0.1-0.2,0.3-0.3,0.5v0.1c-0.1-0.1-0.2-0.1-0.3,0l-1.2,1.2l-0.5,0.3c0-0.1,0-0.1-0.1,0c-0.3,0.4-0.4,0.7-0.3,0.7
			c-0.2,0-0.3,0-0.3,0.1c0,0.2,0,0.3-0.1,0.3c-0.5,0.4-0.8,0.7-0.9,1c-0.1,0.1-0.1,0.1-0.1,0c-0.1-0.1-0.1,0-0.1,0.1l-1.2,1.4
			c-0.1,0-0.1,0-0.1-0.1l-0.3,0.1l-0.5,0.7c-0.1,0-0.1,0.1-0.1,0.3c0,0.2-0.1,0.2-0.3,0c-0.1,0.1-0.1,0.3-0.1,0.5
			c-0.1,0.1-0.2,0.1-0.4,0c0,0.4-0.1,0.7-0.4,0.7c-0.1,0-0.1,0-0.1,0.1v0.3l-0.4,0.5c-0.1,0.2-0.2,0.3-0.3,0.4
			c-0.1,0.1-0.1,0.1-0.1,0.1s0,0-0.1-0.1l-0.1,0.1c-0.1,0-0.1,0-0.1,0.1c0,0.1,0,0.1-0.1,0v-0.4c0.1-0.1,0.1-0.3,0.1-0.5
			c0-0.2,0-0.3,0.1-0.4l0.3-0.3l0.1-0.3c0.3-0.3,0.4-0.6,0.5-0.9c0-0.6,0.1-0.8,0.4-0.7l0.1-0.3l0.4-0.8c0.1-0.1,0.1-0.2,0.1-0.3
			c0-0.1,0-0.2,0.1-0.3c0-0.2,0-0.3,0.1-0.3c0.1,0,0.1,0,0.1-0.1c0.4-0.4,0.6-0.7,0.7-1c0.2-0.2,0.3-0.4,0.4-0.7
			c0.2-0.3,0.4-0.4,0.5-0.4v-0.1l0.4-0.8l0.4-0.5c0-0.2,0-0.2,0.1-0.1c0.1,0.1,0.1,0,0.1-0.1l0.3-0.3c0.1,0,0.2-0.1,0.3-0.4
			c0-0.2,0-0.3,0.1-0.4l0.5-0.8c0-0.1,0.1-0.1,0.3-0.1c0.1,0,0.1,0,0.1-0.1c0-0.2,0-0.3,0.1-0.4l0.1-0.3c0.1-0.2,0.2-0.3,0.3-0.4
			c0.1-0.1,0.2-0.1,0.3,0v-0.1l0.1-0.3l0.3-0.3c0.4-0.1,0.6-0.4,0.7-0.9c0-0.3,0-0.4,0.1-0.4c0.4,0,0.6-0.2,0.7-0.5l0.5-0.7l0.1-0.3
			c0.2-0.2,0.3-0.2,0.3-0.1c0.1,0.1,0.2,0,0.3-0.1c0-0.2,0-0.3,0.1-0.4l0.3-0.3l0.3-0.3c0.1,0,0.2-0.1,0.3-0.4
			c0.1,0.1,0.2,0.1,0.3,0c0-0.1,0-0.1,0.1-0.1c0.2,0,0.3-0.2,0.4-0.5l0.3-0.3l0.4-0.3c0-0.1,0.1-0.2,0.2-0.3
			c0.1-0.1,0.2-0.2,0.3-0.2c0.1,0,0.2-0.1,0.4-0.3l0.4-0.4l0.3-0.4l0.3-0.3l0.5-0.5c0.2,0.1,0.4,0,0.5-0.3l0.3-0.3l0.3-0.1l0.4-0.4
			c0.1,0,0.2-0.1,0.4-0.3c0.2-0.3,0.4-0.4,0.5-0.4c0.2,0,0.5-0.3,1.1-0.8l0.5-0.3c0.1,0.1,0.1,0.1,0.1,0c0-0.1,0.1-0.1,0.3-0.1h0.1
			c0.1-0.1,0.2-0.1,0.4-0.1l0.1-0.1l0.1-0.3v0.1c0.1,0.1,0.3,0,0.5-0.3c0.1-0.2,0.2-0.3,0.3-0.3s0.2,0,0.3,0.1c0,0.2,0.1,0.2,0.3,0
			c0-0.1,0-0.1,0.1-0.1l0.3-0.1c0.2-0.2,0.5-0.3,0.9-0.3h0.4c0,0,0,0,0.1,0C173.7,109.4,173.7,109.3,173.7,109.1 M67,101.2
			c-0.9-0.4-1.6-0.9-2.2-1.4c-0.7-0.6-1.2-1.3-1.6-2.1c0.9-0.7,2.2-1.4,3.9-2c1.7-0.6,3.2-1,4.5-1.1c1.9-0.3,3.7-0.1,5.1,0.5
			c1.5,0.6,2.3,1.4,2.3,2.2c0,0.6-0.3,1.2-0.8,1.7c-0.6,0.5-1.3,1-2.2,1.4c-0.9,0.4-1.8,0.7-2.9,1c-1,0.3-1.9,0.4-2.7,0.4
			c-0.2,0-0.4,0-0.6,0C68.7,101.7,67.7,101.5,67,101.2 M76.6,81c-2.5-0.6-5-1.2-7.6-2l-3-0.8c1-1.3,2.2-2.6,3.6-4.1
			c1.4-1.5,3-2.8,4.6-4.1c1.7-1.3,3.4-2.4,5.1-3.4c1.7-1,3.3-1.6,4.8-1.9c1.2-0.2,2.3-0.1,3.3,0.3c1,0.4,1.9,1,2.6,1.8
			c0.7,0.8,1.2,1.8,1.6,2.8c0.4,1,0.6,2.1,0.6,3c0,2.2-0.7,4.2-2.1,6.1c-1.4,1.9-3.6,2.9-6.5,3c-0.3,0-0.5,0-0.8,0
			C80.8,81.7,78.8,81.4,76.6,81 M81.1,63.2c-1,0.1-2.1,0.4-3.2,0.7c-2.2,0.5-4.3,1.3-6.5,2.5c-2.2,1.1-4.2,2.5-6.2,4
			c-1.2,0.9-2.3,1.9-3.3,2.9c-1,1-2,2.1-2.9,3.2c-3.8-0.8-7.6-1.6-11.5-2.2c-3.8-0.7-7.5-1.2-11.1-1.5c-8.8-0.5-15.4,0.7-19.9,3.6
			c-1.6,1-3,2.4-4.3,4.1c-1.3,1.7-2.2,3.5-2.9,5.4c-0.2,0.7-0.4,1.4-0.7,2.1c-0.2,0.7-0.3,1.4-0.3,2c0,0.6,0.1,1,0.4,1.4
			c0.3,0.4,0.8,0.6,1.6,0.6c0.4,0,0.9-0.2,1.4-0.5c0.5-0.3,0.7-0.9,0.7-1.6c0-0.7-0.3-1.2-0.8-1.6c-0.6-0.4-1.1-0.5-1.7-0.3
			c1.3-4.8,3.7-8.3,7.2-10.5c4.4-2.8,10.8-4,19.2-3.5c3.5,0.2,7.1,0.7,10.8,1.3c3.7,0.7,7.4,1.4,11.1,2.2c-0.4,0.6-0.7,1.2-1.1,1.8
			c-0.4,0.6-0.7,1.2-1.1,1.8c-2.1,4.1-2.9,7.9-2.5,11.5c0.1,1.5,0.6,3,1.5,4.5c-2.2,1-4.4,2.3-6.4,3.8c-2.1,1.5-4,3.1-5.9,4.9
			c-1.9,1.9-3.7,4-5.2,6.2c-1.5,2.2-2.8,4.5-3.7,6.8c-2.2,5.2-2.9,9.8-2,13.9c1,4.4,2.8,7.7,5.4,10c3.7,3.4,8.8,5.1,15.5,5.1
			c2.5,0,4.9-0.4,7.2-1.1c2.3-0.7,4.6-1.6,6.8-2.8c2.2-1.2,4.3-2.5,6.3-4c1.3-1,2.6-2,3.8-3.1c0,0.3-0.1,0.5-0.1,0.8
			c0,0.3,0,0.6-0.1,0.8v1.2c-0.1,0.1-0.1,0.4-0.1,0.8c0,0.1,0,0.1,0.1,0.1v0.9c0,0.2,0,0.3,0.1,0.4v0.3v0.7c0.1,0.1,0.1,0.3,0.1,0.7
			l0.1,0.1l-0.1,0.3c-0.1,0.1,0,0.1,0.3,0.1c0,0.2,0,0.3,0.1,0.3l0.1,0.3l-0.1,0.3c-0.1,0.1-0.1,0.1,0,0.1h0.3l0.1,0.1l0.1,0.3
			c0,0.1,0.1,0.2,0.3,0.4l0.3,0.4l0.3,0.3c0.2,0,0.4,0.1,0.7,0.4c0.1,0.1,0.2,0.1,0.4,0.1c0.4,0,0.5,0.1,0.5,0.4h0.3v0.1h0.5
			c0,0.1,0,0.1,0.1,0.1c0.1-0.1,0.3-0.1,0.5-0.1c0.1,0.1,0.2,0.1,0.4,0.1h0.4c0,0.2,0.1,0.2,0.3,0H83c0.2,0.2,0.4,0.2,0.7,0l0.3,0.1
			l0.8-0.7L85,147h0.3c0.1,0.1,0.4,0,0.8-0.1c0.2,0,0.3,0,0.4-0.1c0.1-0.1,0.2-0.1,0.4-0.1v-0.1c0.2,0,0.3,0,0.3-0.1
			c-0.1-0.1-0.1-0.2,0-0.2c0.1,0,0.2-0.1,0.3-0.1l0.5-0.4c0.4,0,0.4-0.1,0.1-0.4h0.1l0.3-0.3l0.4-0.3l0.4-0.3v-0.1l0.1-0.3
			c0-0.2,0.1-0.4,0.4-0.7l0.3-0.3c0-0.2,0-0.3,0.1-0.4l0.3-0.3c0.5-0.4,0.6-0.7,0.4-0.8v-0.1l0.4-0.5c0-0.1,0.1-0.2,0.3-0.4
			c0.4-0.3,0.5-0.6,0.5-0.7c0.2-0.2,0.3-0.3,0.3-0.4c0.2,0,0.3,0,0.3-0.1c0.1-0.2,0.4-0.5,0.8-0.9l0.3-0.4c0.1,0,0.2-0.1,0.4-0.3
			c0.2-0.2,0.3-0.3,0.4-0.5l0.4-0.5l0.3-0.1c0.1-0.1,0.1-0.3,0.1-0.5l0.8-0.8l0.3-0.4h0.1c0.1,0,0.1,0,0.1-0.1
			c0-0.2,0.1-0.3,0.3-0.5l0.3-0.1l0.5-0.7c0.3-0.3,0.5-0.6,0.7-0.9l0.3-0.3l0.3-0.3c0-0.1,0-0.1,0.1-0.1c0.4,0,0.7-0.3,0.9-0.9
			l0.3-0.3c0-0.2,0.1-0.3,0.4-0.3c0.1,0,0.1,0,0.1-0.1c0-0.3,0.1-0.4,0.4-0.4V130l0.3-0.5l0.5-0.5c0-0.1,0-0.1,0.1-0.1l0.5-0.7
			c-2.1,4.9-3.4,8.4-4.1,10.6v0.3l-0.1,0.1c0.2,0.3,0.2,0.5,0,0.7v0.7c-0.2,0.2-0.2,0.3,0,0.5v0.7l0.3,0.8c0,0.4,0.1,0.6,0.3,0.8
			c0.1,0.1,0.1,0.2,0.1,0.4c0,0.3,0,0.4,0.1,0.5c0.1,0.3,0.3,0.5,0.5,0.8c0.2,0,0.3,0.1,0.3,0.3h0.1c0.1,0,0.1,0,0.1,0.1
			c0,0.1,0.1,0.2,0.2,0.2c0.1,0,0.2,0.1,0.3,0.1l0.4,0.3c0.1,0,0.2,0.1,0.4,0.3c0.1,0.1,0.2,0.1,0.4,0.1l0.3,0.1
			c0.1,0.1,0.2,0.1,0.4,0.1c0.1,0,0.1,0,0.1,0.1h0.1l0.1-0.1c0,0.1,0,0.1,0.1,0h0.1c0,0.1,0,0.1,0.1,0.1h0.5v0.3
			c0-0.1,0-0.1,0.1-0.1c0.1,0,0.2,0,0.3,0.1c0.1,0,0.2,0,0.3-0.1c0.1-0.1,0.1,0,0.1,0.1c0.2-0.2,0.3-0.2,0.3-0.1
			c0.1-0.1,0.2-0.1,0.4-0.1c0.3,0,0.5-0.1,0.7-0.3l0.3-0.1h0.1c0.2,0,0.4-0.1,0.5-0.3h0.3c0.2-0.2,0.4-0.3,0.5-0.3h0.1
			c0.2-0.3,0.4-0.4,0.5-0.4c0.1,0,0.2-0.1,0.4-0.3c0-0.1,0.1-0.1,0.3-0.1l0.1-0.3c0.1,0,0.1,0,0.1-0.1c0.1-0.1,0.2-0.1,0.4-0.1
			l0.3-0.3l0.3-0.3l0.3-0.3l0.3-0.1h0.1l0.5-0.4l0.4-0.4l0.1-0.1l0.3-0.1c0-0.1,0-0.1,0.1-0.1v-0.1c0.1,0,0.3-0.2,0.7-0.5h0.1
			c0.2,0,0.3-0.1,0.3-0.3l0.3-0.3c0.2-0.2,0.3-0.3,0.4-0.3l0.3-0.3l0.3-0.1l0.1-0.3c0-0.1,0-0.1,0.1,0l0.5-0.5
			c0-0.1,0.1-0.2,0.3-0.4h0.1c0-0.2,0.1-0.3,0.3-0.3l0.3-0.3l0.4-0.4l0.3-0.3c0.2,0,0.3-0.1,0.3-0.4c0-0.1,0.1-0.1,0.3-0.1h0.1
			c0-0.2,0.1-0.3,0.3-0.3l0.3-0.3c0-0.1,0-0.1,0.1-0.1c0.1,0,0.1,0,0.1-0.1l0.8-0.7l0.8-0.8c0.2,0,0.3-0.1,0.3-0.3l0.3-0.1h0.1
			l0.1-0.3v-0.1l0.3-0.1l0.1-0.3c0-0.1,0-0.1,0.1-0.1l0.4-0.4v-0.1c0.2,0.2,0.3,0.1,0.3-0.1l0.4-0.3l0.3-0.3l0.3-0.5h0.1l1.6-1.6
			c0-0.1,0-0.1,0.1-0.1c0.6-0.6,1.1-1,1.4-1.2c0-0.1,0-0.1,0.1-0.1v-0.1c-0.1-0.1-0.1-0.2,0-0.3c0.1-0.1,0.2-0.2,0.4-0.3l0.4-0.4
			l0.3-0.3v-0.1l0.4-0.4c0-0.1,0-0.1,0.1-0.1v-0.1l0.7-0.8h0.1c0.5-0.6,0.8-1,0.9-1l0.3-0.5h0.1l0.9-1.2h0.3c0.2,0,0.3,0,0.4,0.1
			c0,0.2,0.1,0.2,0.3,0h0.1h0.1h0.7c0.1-0.1,0.2-0.1,0.4-0.1c0.2,0.1,0.3,0.1,0.4,0h0.3c0.3,0,0.5,0,0.5-0.1h0.4l0.5-0.3
			c0.2,0.1,0.3,0.1,0.5,0c0.1-0.1,0.2-0.2,0.2-0.3h0.3l0.7-0.1l0.1-0.1l0.3-0.1h0.1l0.3-0.1l0.3-0.1c0.2,0,0.3,0,0.4-0.1
			c0-0.2,0.1-0.3,0.4-0.3l0.3-0.1c0-0.1,0-0.1,0.1,0c0.3-0.3,0.4-0.3,0.4-0.3h0.1c0.2,0,0.3,0,0.3-0.1c0-0.1,0.1-0.1,0.3-0.1
			c0-0.1,0-0.1,0.1-0.1v-0.1l0.1-0.3c0.1,0,0.1,0,0.1-0.1v-0.1c0.2,0,0.3,0,0.4-0.1c0-0.1,0.1-0.1,0.3-0.1h0.1l0.5-0.3l0.1-0.1
			c0-0.1,0-0.1,0.1-0.1v-0.1c0.4,0,0.7-0.2,1.1-0.5l0.1-0.3l0.3-0.1h0.1c0-0.1,0-0.1,0.1-0.1v-0.1l0.1-0.1l0.1-0.3l0.1-0.1
			c0.1,0,0.1,0,0.1-0.1h0.1c0-0.2,0.1-0.3,0.4-0.4l0.2-0.1l-0.2,0.2l-0.1,0.3l-0.4,0.5c-0.1,0.3-0.3,0.5-0.5,0.8l-0.1-0.1l-0.1,0.1
			c-0.1,0.2-0.3,0.6-0.7,1.2c-0.3,0.3-0.4,0.4-0.4,0.5c-0.1,0.2-0.3,0.4-0.7,0.8c-0.4,0.4-0.6,0.7-0.7,0.9l-0.1,0.3l-0.3,0.4
			c0,0.2,0,0.3-0.1,0.4l-0.4,0.5l-0.3,0.4l-0.3,0.4v0.1l-0.4,0.5l-0.1,0.1l-0.1,0.3l-0.3,0.5l-0.3,0.3v0.1c-0.1,0-0.1,0-0.1,0.1
			c0,0.1,0,0.1-0.1,0.1l-0.1,0.1c0.1,0.1,0,0.3-0.1,0.5l-0.4,0.7l-0.4,0.7l-0.5,0.8l-0.7,0.9v0.3c-0.1,0-0.1,0-0.1,0.1
			c-0.1,0.1-0.1,0.2,0,0.4c0-0.1,0-0.1,0.1-0.1l-0.1,0.3c-0.4,0.6-0.6,1-0.7,1.2l-0.4,0.8l-0.3,0.3v0.1c-0.2,0.1-0.2,0.2-0.1,0.3
			l-0.1,0.3c-0.2,0.2-0.3,0.3-0.3,0.4l-0.1,0.1l-0.3,0.4l-0.5,1c-0.1,0.1-0.1,0.2-0.1,0.3c0,0.1,0,0.2-0.1,0.3
			c-0.5,0.7-0.9,1.3-1.1,1.7l-0.1,0.3l-0.3,0.3c-0.2,0.4-0.4,0.7-0.5,0.9c-0.1,0.1-0.1,0.3-0.1,0.5l-0.3,0.5l-0.3,0.3l-0.3,0.5
			l-0.3,0.5L131,143l-0.3,0.5l-0.8,1.6l-0.3,0.5l-0.3,0.7c-0.2,0.2-0.3,0.3-0.3,0.4l-0.3,0.5c-0.1,0.1-0.1,0.2-0.1,0.3
			c0,0.1,0,0.2-0.1,0.3c0,0.3-0.2,0.6-0.5,0.9c-0.1,0-0.1,0,0,0.1l-0.3,0.3v0.4l-0.4,0.7c-0.1,0.1-0.1,0.2-0.1,0.3
			c0,0.1,0,0.2-0.1,0.3c-0.2,0.2-0.3,0.3-0.3,0.4l-0.1,0.3c-0.1,0.2-0.3,0.6-0.5,1.2l-0.3,0.5v0.3c-0.2,0.2-0.3,0.3-0.3,0.4
			c0,0.3,0,0.4-0.1,0.5c0,0-0.1,0.1-0.2,0.3h9.5c0-0.1,0-0.2,0-0.4v-0.1c0.1-0.1,0.2-0.2,0.3-0.3c0.1-0.1,0.1-0.3,0.1-0.5l0.3-0.5
			l0.1-0.1v0.1c-0.1,0.1-0.1,0.3-0.1,0.5c0-0.1,0-0.1,0.1-0.1c0.1,0,0.1,0,0.1-0.1l0.3-0.5c0-0.3,0-0.4,0.1-0.5c0-0.1,0-0.1-0.1,0
			v-0.1l0.1-0.1l0.1-0.3c0,0.1,0,0.1,0.1,0.1c0-0.1,0-0.1,0.1-0.1l0.1-0.3c-0.1,0-0.1,0,0-0.1v-0.3c-0.1,0-0.1,0-0.1,0.1
			c0-0.2,0.1-0.4,0.3-0.8l0.3-0.4c0-0.3,0.1-0.5,0.4-0.8l0.1-0.3c0-0.2,0-0.3,0.1-0.4h0.1v0.1l-0.1,0.3h0.1c0.1-0.1,0.1-0.2,0.1-0.4
			l0.1-0.3c-0.2-0.1-0.1-0.3,0.1-0.5l0.1-0.3c-0.1,0.1-0.1,0.1-0.1,0c0-0.4,0.1-0.7,0.3-0.9v-0.1l0.1-0.3l0.1-0.1v-0.1
			c0.1,0,0.1-0.1,0.1-0.3l0.3-0.1h0.1l0.1-0.3l0.1-0.3v-0.1c-0.1,0-0.1,0-0.1,0.1v-0.3l0.1-0.3l0.3-0.3c0-0.2,0-0.3,0.1-0.3v-0.1
			c0.2-0.4,0.3-0.7,0.4-0.7c0.3-0.3,0.4-0.4,0.3-0.4v-0.1l0.1-0.3v-0.1l0.1,0.1v0.3c0.2-0.2,0.3-0.4,0.4-0.7h0.1
			c0-0.1-0.1-0.1-0.3,0v-0.1l0.3-0.5c0-0.3,0-0.4,0.1-0.5l0.3,0.1l0.1-0.3c0.3-0.3,0.4-0.6,0.5-0.9l0.4-0.4c0.1-0.1,0.1-0.3,0.1-0.5
			l0.3-0.3l0.1-0.3l0.3-0.5l0.3-0.4c0.1-0.1,0.1-0.1,0.1,0c0.1,0.1,0.1,0.1,0.1,0l0.3-0.4c0.1-0.1,0.1-0.2,0.1-0.4
			c-0.2-0.2-0.1-0.3,0.3-0.3l0.3-0.3c0-0.2,0-0.3,0.1-0.4c0.1,0,0.1-0.1,0.1-0.3l0.1-0.1c0.1,0,0.1,0,0.1-0.1h0.1l0.1-0.3l0.1-0.3
			c0.1,0,0.1,0,0.1-0.1l0.4-0.8l0.3-0.4c0-0.1,0.1-0.2,0.2-0.3c0.1-0.1,0.2-0.2,0.2-0.3c0.1,0,0.1,0,0.1-0.1v-0.1l0.1-0.3l0.5-0.5
			c-0.2,1.4-0.3,2.4-0.3,3.1l0.1,2.4c0,0.4,0,0.6,0.1,0.8v1c0.1,0.1,0.1,0.3,0.1,0.5c0,0.3,0,0.4,0.1,0.5c0,0.2,0,0.3,0.1,0.3
			c0.1,0,0.1,0,0.1-0.2c0.2-0.2,0.3-0.1,0.3,0.1c0,0.4,0,0.6,0.1,0.7c0.4,0.4,0.6,0.7,0.7,0.9c0.3,0.1,0.4,0.3,0.4,0.5
			c0,0.2,0,0.2,0.1,0.1c0.1,0,0.1,0,0.1,0.1c0.1,0.1,0.3,0.3,0.5,0.7c0.3,0.3,0.4,0.5,0.4,0.7c0,0.2,0.1,0.1,0.3-0.3
			c0.2,0.4,0.4,0.9,0.8,1.4c0,0.4,0.1,0.5,0.4,0.3c0.2-0.2,0.3-0.2,0.4-0.1c0,0.2,0.1,0.3,0.3,0.5c0.2,0.1,0.4,0.2,0.5,0.3h0.3
			c0.3,0,0.4,0,0.4,0.1c0.2-0.2,0.3-0.2,0.4-0.1l0.3,0.4c0.1,0.5,0.3,0.7,0.7,0.5c0.3-0.3,0.4-0.2,0.5,0.3c0.2,0.2,0.3,0.2,0.3,0
			c0-0.2,0-0.2,0.1-0.1c0.3,0.3,0.5,0.3,0.8,0c0.1,0.1,0.2,0.1,0.3,0c0-0.1,0-0.1,0.1,0l0.1-0.1c0.3,0,0.4,0,0.5-0.1
			c0.2,0.2,0.3,0.2,0.3,0l0.1-0.3h0.1c0.1,0.1,0.2,0.1,0.3,0c0.1-0.1,0.2,0,0.3,0.1l0.5-0.3l0.5-0.3c0.2-0.3,0.4-0.4,0.5-0.4
			c0.4,0,0.6-0.1,0.8-0.3l0.4-0.4l0.3-0.3c0.1-0.1,0.1-0.1,0.1,0s0,0.1,0.1,0l0.5-0.4c0.1,0,0.2-0.1,0.3-0.4c0.2,0.1,0.3,0.1,0.4,0
			c0-0.1,0-0.1,0.1,0l0.3-0.3c0-0.1,0-0.1,0.1,0c0.2,0.1,0.3,0.1,0.4,0l0.3-0.3l0.3-0.1h0.1c0.3,0,0.4-0.2,0.5-0.5
			c0-0.4,0.1-0.6,0.4-0.4c0.4,0,0.5-0.2,0.5-0.5c0-0.2,0-0.3,0.1-0.3c0.1,0.1,0.1,0,0.1-0.1v0.1c0.1,0.1,0.1,0.1,0.1,0
			c0.4-0.3,0.6-0.5,0.7-0.4c0.1,0,0.2-0.1,0.4-0.3l0.1-0.3c0.3,0,0.6-0.1,0.7-0.4c0.3-0.4,0.6-0.7,0.9-0.8l0.4-0.4l0.3-0.3
			c0.2-0.1,0.4-0.3,0.7-0.5c0.2,0.1,0.3,0,0.4-0.4c0-0.3,0.1-0.3,0.3-0.1c0.4-0.3,0.6-0.5,0.7-0.5c0.3,0,0.4-0.1,0.4-0.4
			c0-0.3,0-0.4,0.1-0.3c0.3,0.2,0.5,0,0.7-0.4c0.1-0.3,0.3-0.5,0.7-0.7l0.1-0.1l0.4-0.8l0.5-0.7l0.4-0.4c0-0.1,0.1-0.1,0.3-0.1
			c0.3-0.2,0.4-0.4,0.4-0.7c0-0.4,0.4-0.9,1.1-1.4l0.5-0.7c0-0.2,0-0.2,0.1-0.1v0.1c0-0.3,0.1-0.5,0.3-0.7c0.1-0.1,0.1-0.3,0.1-0.5
			c0-0.2,0-0.3,0.1-0.4l0.3-0.4c0-0.2,0-0.3,0.1-0.4c0.1-0.1,0.1-0.2,0.1-0.4c0-0.4,0.1-0.6,0.4-0.4c0.2,0,0.3-0.2,0.4-0.5
			c0.1-0.1,0.2-0.1,0.3,0c0-0.3,0-0.6,0.1-0.8c0.1-0.1,0.1-0.3,0.1-0.7c0-0.5,0.1-1,0.4-1.3l0.3-0.8c0-0.4,0-0.6,0.1-0.8
			c0-0.4,0-0.7,0.1-0.8c0.2-0.2,0.3-0.4,0.3-0.8c0-0.4,0-0.6,0.1-0.8v-0.9c0-0.4,0-0.6,0.1-0.8v-0.5c0.2,0,0.3,0,0.4,0.1l0.1-0.1
			c0.1,0.1,0.1,0,0.1-0.1c0-0.1,0-0.1,0.1,0c0.1,0.1,0.2,0.1,0.3,0c0-0.1,0-0.1,0.1-0.1l0.3,0.1l0.1,0.3c0.1,0,0.2,0,0.3-0.1
			c0-0.1,0-0.1,0.1-0.1c0.1,0,0.1,0,0.1,0.1c0,0.2,0,0.2,0.1,0.1c0.3-0.3,0.6-0.4,0.9-0.5c0.3,0,0.5-0.1,0.8-0.4v0.1
			c0.2,0.4,0.5,0.3,0.9-0.1c0.2-0.3,0.4-0.3,0.5-0.1c0.4,0.4,0.7,0.4,0.8,0c0.1-0.1,0.2-0.1,0.4-0.1c0,0.1,0,0.1,0.1,0.1
			c0.3-0.2,0.5-0.3,0.7-0.3c0.2,0,0.3,0,0.5,0.2c0.2,0.1,0.3,0.2,0.6,0.1l-0.1,0.3l-0.1,0.3c-0.1,0-0.2,0-0.2,0.1c0,0,0,0.1,0.1,0.2
			c0.2,0.2,0.1,0.3-0.3,0.3c-0.3,0-0.4,0.1-0.4,0.4c-0.2,0.2-0.3,0.3-0.3,0.4l-0.3,0.5c0.2,0.2,0.1,0.4-0.3,0.5
			c-0.2,0.2-0.3,0.4-0.3,0.7c0,0.1-0.1,0.2-0.3,0.4l-0.3,0.5c0,0.3-0.1,0.5-0.4,0.8c-0.2,0.2-0.3,0.3-0.3,0.4c0,0.3-0.1,0.5-0.3,0.7
			c-0.3,0.4-0.4,0.7-0.3,0.8l-0.1,0.3c-0.5,0.5-0.8,1.2-0.8,2l-0.4,0.9l-0.3,0.8l-0.3,0.9l-0.3,0.9l-0.3,0.9c0,0.4,0,0.6-0.1,0.7
			c0,0.4-0.1,1.1-0.4,1.8c-0.2,0.2-0.2,0.4,0,0.5v0.1l-0.1,0.3c0,0.2,0,0.3,0.1,0.3c0,0.2,0,0.3-0.1,0.4v0.1
			c-0.1,0.1-0.1,0.2-0.1,0.4v0.7c0,0.4,0,0.6,0.1,0.7v0.7c-0.1,0.4,0,0.7,0.1,1.1c0.1,0.3,0.1,0.7,0.1,1.2v0.3l0.4,0.4
			c0,0.2,0,0.3,0.1,0.5c0.1,0.1,0.1,0.2,0.1,0.3l0.1,0.1v0.1c0,0.1,0,0.1,0.1,0.1c0.1,0,0.1,0,0.1,0.1c0,0.2,0,0.3,0.1,0.3l0.3,0.3
			l0.4,0.4l0.4,0.4c0.1,0.2,0.4,0.4,0.9,0.5c0.3,0,0.4,0.1,0.4,0.3c0,0.2,0.1,0.3,0.3,0.3c0.1,0,0.2,0.1,0.4,0.3
			c0.1,0.1,0.2,0.1,0.4,0.1c0.1,0,0.2,0.1,0.4,0.3c0.1-0.1,0.2,0,0.4,0.1l0.3,0.3c0.4,0.1,0.5,0.3,0.5,0.5l0.1,0.1v-0.3
			c0-0.1,0-0.1,0.1-0.1c0.2,0,0.2,0.1,0,0.3c0,0.1,0.1,0.2,0.3,0.4h0.7c0,0.1,0.1,0.1,0.3,0.1c0.1,0,0.2,0,0.4,0.1
			c0.2,0.1,0.4,0.1,0.7,0.1h0.1c0.8,0.4,1.9,0.5,3.4,0.5c0.8,0.1,1.9,0,3.3-0.1h2c0.4,0,0.6,0,0.8-0.1h0.1c0.2,0,0.3,0,0.4-0.1
			c0-0.3,0.1-0.3,0.3-0.1c0.1-0.1,0.2-0.1,0.4-0.1c0.1,0.1,0.2,0,0.4-0.1l0.1-0.1c0.5,0.1,0.8,0,0.9-0.4h0.1l0.5-0.3l0.3-0.1h0.1
			l0.5-0.3c0.2,0,0.4-0.1,0.5-0.3c0.2-0.2,0.3-0.3,0.4-0.3c0.2,0,0.3,0,0.3-0.1v-0.1c0.1,0.1,0.2,0.1,0.2,0.1c0,0,0.1-0.1,0.1-0.2
			c0-0.1,0.1-0.1,0.3-0.1l0.5-0.4c0.1-0.1,0.4-0.3,0.9-0.5l0.3-0.1c0.3-0.3,0.4-0.4,0.4-0.3l0.3-0.3c0,0.1,0,0.1,0.1,0
			c0.2,0,0.3-0.1,0.3-0.3c0-0.3,0.1-0.4,0.4-0.4l0.8-0.5l0.7-0.5c0.1-0.1,0.1-0.2,0.1-0.4v-0.4c0.4-0.1,0.5-0.3,0.5-0.5
			c0.2,0,0.3,0,0.4-0.1l0.3-0.1l0.1-0.3c0.2-0.2,0.3-0.3,0.4-0.3l0.3-0.1c0-0.1,0.1-0.2,0.3-0.4c0.3,0,0.4-0.1,0.5-0.4
			c0.2-0.2,0.3-0.3,0.4-0.3l0.4-0.4c0-0.1,0.1-0.1,0.3-0.1h0.1c0-0.1,0.1-0.2,0.3-0.4l0.3-0.1c0.4-0.2,0.8-0.4,1.1-0.7l0.8-0.7
			l0.3-0.3c0-0.2,0.1-0.3,0.3-0.3c0.3,0,0.4-0.1,0.5-0.4l0.3-0.1c0.3-0.1,0.5-0.3,0.7-0.7c0-0.2,0.1-0.3,0.3-0.3
			c0.3-0.1,0.5-0.3,0.7-0.7h0.3l0.4-0.3l0.4-0.3l0.3-0.3c0-0.2,0-0.3,0.1-0.3c0,0.1,0,0.1,0.1,0l0.8-0.4c0.2-0.2,0.3-0.3,0.3-0.4
			c-0.2-0.2-0.1-0.3,0.1-0.3c0.1,0,0.1,0,0.1-0.1l0.9-0.8l0.1-0.1c0.1,0.1,0.2,0,0.4-0.1l0.3-0.3c0.5-0.2,0.7-0.4,0.5-0.7
			c0-0.1,0-0.1,0.1,0h0.1l1.1-1.1l0.3-0.1c0-0.1,0.1-0.2,0.3-0.4l0.4-0.3c0.2,0,0.3-0.1,0.3-0.3c0-0.2,0.1-0.3,0.3-0.3l0.3-0.1
			c0-0.2,0.1-0.3,0.3-0.3c0.1,0.1,0.1,0,0.1-0.1c0.4-0.2,0.6-0.4,0.7-0.5c0.2-0.2,0.3-0.3,0.4-0.3c0.3-0.4,0.6-0.7,0.9-0.8
			c0.2-0.2,0.2-0.3,0.1-0.3l0.3-0.1c0.1,0,0.1,0,0.1-0.1h0.1V123h0.1c0.4,0,0.5-0.1,0.3-0.4c-0.1-0.1,0-0.2,0.2-0.4
			c0.2-0.2,0.4-0.3,0.5-0.4l0.3-0.3c0.1,0,0.1-0.1,0.1-0.3c0.2-0.2,0.3-0.3,0.4-0.3c0.2,0.1,0.3,0,0.3-0.3v-0.1l0.5-0.5l0.4-0.5
			l0.4-0.4c0.2-0.3,0.4-0.4,0.5-0.4l0.1-0.3v-0.4l0.1,0.1c0,0.1,0,0.1,0.1,0.1v-0.1l0.1-0.3c0.1,0,0.1,0,0.1-0.1
			c0.3,0,0.4-0.1,0.4-0.4c0-0.2,0-0.2,0.1-0.1c0.1,0,0.1,0,0.1-0.1c0.2-0.4,0.3-0.7,0.4-0.7l0.1-0.1c-0.1-0.1,0-0.3,0.3-0.5
			c0-0.1,0-0.1,0.1-0.1c0.1,0.1,0.1,0.1,0.1,0l0.1-0.3v-0.1l0.3-0.3H241V115c-0.1-0.1-0.2-0.1-0.3,0c-0.3,0.3-0.4,0.4-0.3,0.4
			l-0.1,0.3l-0.5,0.4c-0.1-0.1-0.1,0-0.1,0.3c0,0.2-0.1,0.3-0.4,0.3v0.1h-0.1l-0.3,0.4l-0.5,0.4l-0.5,0.4l-1.2,1.1
			c-0.4,0.4-0.7,0.6-0.9,0.7l-1.1,1.1c-0.2,0.2-0.3,0.3-0.4,0.3l-1.2,0.9c-0.3,0.3-0.4,0.4-0.4,0.3c0,0.2,0,0.3-0.1,0.3
			c-0.1,0-0.2,0-0.3,0.1c-0.1,0.1-0.1,0.2-0.1,0.3c0,0.1-0.1,0.1-0.3,0.1c-0.1,0-0.1,0-0.1,0.1c0,0.1,0,0.1-0.1,0.1
			c-0.2,0-0.3,0-0.3,0.1l-0.4,0.3l-0.3,0.3c-0.3,0.3-0.5,0.4-0.7,0.4l-0.3,0.3c0,0.1,0,0.1-0.1,0.1c-0.2,0-0.3,0-0.3,0.1
			c0,0.1-0.1,0.1-0.3,0.1l-0.1,0.3c-0.2-0.2-0.3-0.2-0.3,0l-0.3,0.3l-0.3,0.3l-0.4,0.3l-0.3,0.1h-0.1c-0.2,0.2-0.3,0.3-0.4,0.3
			l-0.1,0.1l-0.1,0.3c-0.2,0-0.3,0-0.4,0.1c0,0.1,0,0.1-0.1,0.1c-0.1,0-0.1,0-0.1,0.1c0,0.2,0,0.2-0.1,0.1l-0.3,0.1l-0.7,0.5
			c-0.4,0.4-0.7,0.6-0.9,0.7l-0.4,0.3l-0.4,0.3l-0.3,0.3l-0.4,0.3l-0.1,0.1l-0.5,0.3c-0.3,0.3-0.5,0.4-0.8,0.5c-0.1,0-0.1,0-0.1,0.1
			l-0.7,0.5l-0.4,0.3l-0.1,0.1c-0.4,0.1-0.6,0.3-0.7,0.5c0,0.1,0,0.1-0.1,0.1c-0.2,0-0.3,0-0.4,0.1c-0.2,0.2-0.3,0.3-0.4,0.3
			l-0.3,0.3c-0.2,0-0.3,0.1-0.3,0.3c-0.1,0.1-0.2,0.1-0.3,0h-0.1v0.1c0,0.2,0,0.3-0.1,0.3c-0.1,0-0.1,0-0.1,0.1
			c0,0.2-0.1,0.3-0.3,0.3c-0.2,0-0.4,0.1-0.5,0.3c-0.1,0.1-0.2,0.1-0.4,0.1c-0.2,0-0.2,0-0.1,0.1l-0.1,0.3c-0.2,0-0.4,0.1-0.5,0.4
			c0,0.1,0,0.1-0.1,0.1c-0.2,0-0.3,0-0.3,0.1l-0.4,0.3l-0.7,0.4l-0.7,0.5c-0.4,0.4-0.8,0.6-0.9,0.5l-0.1,0.1c-0.1,0-0.2,0.1-0.2,0.2
			c0,0.1-0.1,0.2-0.2,0.2c0-0.1,0-0.1-0.1-0.1c-0.1,0-0.1,0.1-0.1,0.3c0,0.1,0,0.1-0.1,0.1c-0.1,0-0.2,0.1-0.4,0.3l-0.3,0.3h-0.1
			l-0.8,0.4l-0.3,0.3l-0.4,0.4c-0.2,0-0.3,0-0.4,0.1l-0.5,0.4l-0.5,0.3l-0.5,0.4l-0.3,0.1l-0.4,0.3c-0.3,0.1-0.5,0.3-0.8,0.5
			c-0.5,0.2-0.8,0.3-0.9,0.3c-0.4,0.2-0.7,0.3-0.7,0.4h-0.1l-0.3,0.1h-0.3l-0.5,0.3c-0.4,0-0.6,0-0.7,0.1c-0.2,0.1-0.4,0.1-0.7,0.1
			h-0.1v0.1c-0.3,0.1-0.7,0.1-1.3,0.1h-0.1c0-0.1,0-0.1-0.1,0c-1.1,0-2.3-0.1-3.6-0.4c-0.9-0.4-1.5-1.1-2-2l-0.3-1.2v-0.5
			c0-0.4,0-0.6,0.1-0.7v-0.3c0.1-0.1,0.1-0.4,0.1-0.8c-0.3-0.3-0.3-0.4,0-0.4c0.1-0.1,0.1-0.3,0.1-0.7v-0.3c0.2-0.4,0.2-0.7,0.1-0.8
			c0-0.1,0-0.1,0.1-0.1l0.3-0.7c0-0.3,0.1-0.5,0.3-0.7v-0.3h0.1c0-0.2,0-0.3,0.1-0.4v-0.3l0.4-0.7c0.2-0.2,0.2-0.4,0-0.7
			c0.2-0.2,0.3-0.3,0.3-0.4l0.1-0.3c0.3-0.4,0.4-0.9,0.4-1.3c0-0.1,0.1-0.2,0.3-0.4l0.1-0.1c0-0.1,0.1-0.2,0.3-0.4v-0.3
			c0.2-0.2,0.3-0.3,0.3-0.4l0.1-0.3c0.2-0.2,0.3-0.3,0.3-0.4c0-0.3,0-0.4,0.1-0.5c0.1-0.1,0.1-0.2,0.1-0.4c0-0.2,0.1-0.3,0.3-0.3
			l0.1-0.1c0-0.1,0.1-0.2,0.3-0.4c0.1-0.1,0.1-0.2,0.1-0.4v-0.1l0.4-0.4l0.1-0.3l0.4-0.8l0.1-0.3c0.3-0.2,0.4-0.4,0.4-0.7v-0.1
			c0.2,0.2,0.3,0.1,0.3-0.1v-0.3l0.4-0.4l0.3-0.3c0-0.2,0-0.3,0.1-0.4c0.4-0.4,0.5-0.6,0.5-0.7l0.3-0.3l0.3-0.3l0.1-0.3l0.1-0.1
			c0-0.3,0.1-0.4,0.3-0.4l0.4-0.4l0.3-0.4v0.1c0.1,0,0.1,0,0.1-0.1c0-0.2,0-0.3,0.1-0.3l0.3-0.3c0-0.1,0.1-0.1,0.3-0.1l0.3-0.3
			l0.1-0.3v-0.1c0.1,0,0.1-0.1,0.1-0.3c0-0.2,0.1-0.3,0.4-0.3l0.1-0.1c0.2-0.2,0.3-0.3,0.3-0.4c0.3-0.3,0.4-0.4,0.4-0.3
			c0.1,0,0.1,0,0.1-0.1l0.3-0.3l0.3-0.3c0.2,0,0.3,0,0.3-0.1l0.4-0.4l0.4-0.3l0.7-0.8c0.3-0.3,0.4-0.4,0.5-0.4
			c0.5-0.5,0.8-0.9,0.8-1.1v-0.1c0-0.1,0-0.2,0.1-0.2c0,0,0.1,0,0.2,0.1h0.4l0.3-0.1l0.1-0.1l0.8-0.9c0-0.1,0.1-0.1,0.4-0.1
			c0.1,0,0.1,0,0.1-0.1c0.2-0.2,0.3-0.3,0.4-0.3c0.1,0.1,0.2,0.1,0.2,0c0-0.1,0-0.2-0.1-0.3c0.1,0,0.1,0,0.1,0.1l0.3-0.1l0.3-0.1
			l0.3-0.3l0.1-0.1h0.3v-0.4l0.5-0.8c0.4-0.1,0.7-0.2,0.9-0.4h0.1c0.3,0,0.4-0.1,0.5-0.4c0.2-0.2,0.1-0.2-0.1-0.1
			c-0.1,0-0.1-0.1-0.1-0.4l0.1-0.3v-0.1l0.1-0.1h0.3c0.1,0.1,0.2,0.1,0.3,0c0-0.1,0-0.1,0.1,0c0.1,0.1,0.1,0.1,0.1,0
			c0-0.2,0-0.2,0.1-0.1c0,0.1,0,0.1,0.1,0.1h0.5c0.1,0.1,0.2,0.1,0.4,0.1l0.3,0.1l0.1,0.1l0.3,0.3c0.4,0.1,0.6,0.3,0.7,0.7
			c0,0.1,0,0.2,0.1,0.2c0,0,0.1,0,0.2-0.1c0.1,0,0.1,0,0.1,0.1c0,0.2,0,0.3-0.1,0.3c0,0.2,0,0.3,0.1,0.3v0.1l0.3-0.1
			c0,0.2,0,0.3,0.1,0.3v0.4c0,0.2,0.1,0.4,0.3,0.8l0.1,1.1c-0.1,0.2-0.1,0.4-0.1,0.8v0.8c-0.2,0.4-0.2,0.7-0.1,0.8v0.1l-0.4,1.3
			c-0.1,0.1-0.1,0.2-0.1,0.3c0,0.1,0,0.2-0.1,0.3c-0.2,0.7-0.4,1.3-0.8,1.7c-0.4,0.4-0.6,0.7-0.7,0.9c-0.2,0.2-0.3,0.3-0.3,0.4
			l-0.3,0.3l-0.7,0.9l-0.8,0.9c-0.1,0.4-0.3,0.5-0.7,0.5h-0.3c0,0.1,0,0.1-0.1,0.1h-0.5c-0.1,0-0.1,0-0.1,0.1v0.1
			c0.1,0,0.3,0.1,0.5,0.4l0.4,0.4l0.3-0.1l0.1,0.1c0.1-0.1,0.2-0.1,0.2-0.1c0,0,0.1,0.1,0.1,0.2h0.1c0.2,0.1,0.3,0.1,0.4,0l0.3,0.1
			c0.2-0.2,0.4-0.2,0.7,0c0.3,0.2,0.5,0.2,0.7,0c0-0.1,0-0.1,0.1,0c0,0.1,0,0.1,0.1,0l0.4-0.5c0.1-0.1,0.1-0.2,0.1-0.4l0.1-0.3
			l0.3-0.1l0.1-0.1c0.1-0.1,0.1-0.2,0.1-0.4l0.1-0.3c0.2-0.4,0.3-0.7,0.4-0.7c0.1,0,0.1,0,0.1-0.1c0.4-0.6,0.6-1,0.7-1.2l0.4-0.5
			c0.1-0.1,0.1-0.2,0.1-0.3c0-0.1,0-0.2,0.1-0.3l0.3-0.5c0.1-0.1,0.1-0.2,0.1-0.4c0-0.1,0.1-0.2,0.3-0.4c0.1,0,0.1-0.1,0.1-0.4
			c0-0.1,0.1-0.2,0.3-0.4l0.3-0.5c0.1-0.1,0.1-0.2,0.1-0.4l0.1-0.3c-0.1,0-0.1,0,0-0.1c0.2-0.2,0.3-0.3,0.3-0.4c0-0.2,0-0.3,0.1-0.4
			l0.1-0.3c0-0.4,0-0.6,0.1-0.8c0.2-0.5,0.3-1,0.3-1.5V110v-0.3l0.3-0.8c0.1-0.1,0.1-0.3,0.1-0.7v-0.1c0.3-0.3,0.2-0.4-0.1-0.5v-0.1
			c0-0.6-0.1-1-0.3-1.2c-0.4-0.4-0.7-0.7-0.9-0.8l-0.5-0.4c-0.4-0.4-0.7-0.5-0.9-0.5c-0.4,0-0.6-0.1-0.8-0.3c0-0.1,0-0.1-0.1-0.1
			l-0.5-0.3c-0.3,0-0.4,0-0.5-0.1c-0.2-0.2-0.3-0.3-0.4-0.3l-0.3-0.1l-0.5-0.3h-0.5c-0.3-0.1-0.8-0.1-1.6-0.1h-0.4
			c-0.1,0.1-0.2,0.1-0.4,0h-0.3c-0.4,0-0.6,0-0.7-0.1h-0.7c-0.1-0.1-0.3-0.1-0.7-0.1c-0.3-0.3-0.4-0.3-0.5,0
			c-0.2,0.2-0.4,0.2-0.5,0.1h-0.1c-0.1,0.1-0.3,0.1-0.7,0.1h-0.1c-0.4,0-0.6,0-0.7-0.1h-0.7c-0.1-0.1-0.3-0.2-0.5-0.3
			c-0.3-0.1-0.5,0-0.7,0.1v0.1c0-0.1-0.1-0.1-0.3-0.1h-0.1c0,0.1-0.1,0.1-0.4,0.1c-0.1,0.1-0.4,0.1-0.8,0.1c-0.4,0-0.6,0-0.7,0.1
			c-0.2,0-0.3,0-0.3-0.1h-0.4l-0.3-0.1h-0.3c-0.1,0.1-0.2,0.1-0.4,0l-0.3-0.1h-0.3c0,0.1,0,0.2-0.1,0.2c0,0-0.1,0-0.2-0.1
			c-0.2,0-0.3,0.1-0.3,0.4l-0.5,0.3c-0.1,0-0.1,0-0.1,0.1v0.3h-0.1c-0.1-0.2-0.2-0.2-0.4,0l-0.5,0.4h-0.1c0,0.3-0.2,0.4-0.5,0.5
			c-0.1,0-0.2,0.1-0.3,0.4l-0.3,0.3c-0.4,0.4-0.6,0.5-0.7,0.5l-0.3,0.3l-0.5,0.4l-0.5,0.5c-0.2,0-0.3,0.1-0.3,0.4
			c0,0.3-0.1,0.4-0.4,0.4l-0.1,0.1c0,0.1,0,0.1-0.1,0.1l-0.1,0.3c-0.4,0.3-0.8,0.6-1.1,1.1c0,0.3-0.1,0.4-0.4,0.3
			c-0.1,0-0.1,0.1-0.1,0.3c-0.4,0.4-0.6,0.6-0.7,0.8c0,0.2-0.1,0.3-0.3,0.3c-0.4,0.4-0.5,0.6-0.5,0.8v0.1l-0.1,0.3h-0.3l-0.3,0.1
			c0,0.3,0,0.4-0.1,0.4c-0.4,0.2-0.6,0.5-0.7,0.9l-0.1,0.3l-0.3,0.1v0.1c-0.1,0-0.1,0-0.1,0.1l-0.3,0.5c-0.2,0-0.2,0-0.1,0.1
			l-0.3,0.3c-0.1,0.1-0.1,0.2-0.1,0.3c0,0,0,0-0.1,0c-0.4,0.2-0.7,0.1-0.8-0.3l-0.3,0.1c-0.1,0.3-0.4,0.3-0.8,0.1
			c-0.2,0-0.3,0-0.4-0.1c-0.3,0-0.4,0-0.5,0.1c-0.1,0.1-0.2,0.1-0.3,0.1c-0.1-0.2-0.2-0.2-0.4,0c0,0.1,0,0.1-0.1,0.1
			s-0.2-0.1-0.2-0.2c0-0.1-0.1-0.2-0.2-0.2l-0.1,0.1c-0.1,0.1-0.1,0-0.1-0.3h-0.1c-0.3,0.3-0.4,0.4-0.3,0.4
			c-0.1,0.1-0.2,0.1-0.2,0.1c0,0,0-0.1,0.1-0.1c0.2-0.2,0.2-0.3,0-0.3c0,0.1-0.1,0.2-0.3,0.4c0,0.1,0,0.1-0.1,0.1c0,0-0.1,0-0.1-0.1
			l-0.3-0.1c-0.3,0-0.4,0-0.4,0.1c-0.1,0-0.1,0-0.1-0.1h-0.7c-0.1,0.1-0.3,0-0.5-0.1c0-0.1,0-0.1-0.1-0.1l-0.3,0.3
			c0-0.1-0.1,0-0.3,0.1c-0.1,0.1-0.1,0.1-0.1,0c-0.1-0.2-0.2-0.2-0.3-0.1c-0.1,0.1-0.2,0.1-0.3,0c-0.2,0-0.3,0-0.4,0.1
			c-0.1,0.1-0.2,0-0.4-0.1h-0.1c0-0.3,0-0.4-0.1-0.5h0.1v-0.8c-0.1-0.1-0.1-0.3-0.1-0.5c-0.1-0.3-0.1-0.7-0.1-1.2l-0.3-0.9v-0.3
			l-0.1-0.3c0-0.4,0-0.7-0.1-0.8c-0.2-0.2-0.3-0.4-0.3-0.8c0-0.3,0-0.4-0.1-0.4h-0.1l-0.1-0.1l-0.4-0.7l-0.4-0.7
			c0-0.2,0-0.3-0.1-0.3l-1.2-1.2c-0.2-0.2-0.3-0.3-0.4-0.3c-0.1,0-0.2-0.1-0.4-0.4v-0.1c-0.1,0.1-0.2,0.1-0.4,0l-0.3-0.1
			c-0.3,0-0.4,0-0.4-0.1c-0.2,0.2-0.3,0.2-0.3,0c-0.1-0.2-0.2-0.2-0.4,0v-0.1c-0.1-0.1-0.2-0.1-0.3,0v0.3c-0.1,0-0.1,0-0.1-0.1
			c-0.1-0.1-0.1-0.3-0.1-0.5c0,0.1-0.1,0.1-0.3,0.1l-0.3-0.1c-0.1-0.1-0.1,0-0.1,0.1c0,0.1,0,0.1-0.1,0H175c-0.1,0-0.1,0-0.1,0.1
			l-0.1-0.1c-0.1,0-0.2,0.1-0.4,0.3c-0.1-0.1-0.2-0.1-0.4-0.1c-0.2,0-0.3,0.1-0.3,0.3l-0.1,0.1c-0.3,0-0.4-0.2-0.5-0.5
			c-0.2,0.2-0.3,0.1-0.4-0.1c-0.2,0-0.3,0-0.4,0.1l-0.1,0.1c-0.1-0.2-0.2-0.2-0.3-0.1c-0.1,0.1-0.2,0.1-0.4,0
			c-0.1-0.2-0.2-0.2-0.4,0c-0.2,0.2-0.4,0.2-0.5,0c-0.1-0.1-0.2,0-0.4,0.1c-0.1,0.1-0.2,0.1-0.3,0.1c-0.1,0-0.2-0.1-0.3-0.3v0.1
			c-0.1,0.2-0.2,0.3-0.3,0.3c-0.1,0-0.2,0-0.3-0.2h-0.1c-0.2,0.2-0.3,0.2-0.3,0.1c-0.2,0-0.3,0-0.4,0.1h-0.1
			c-0.1,0.1-0.2,0.1-0.3,0.1h-0.3c-0.1,0-0.1,0-0.1-0.1c-0.1,0-0.2,0.1-0.4,0.3c-0.1-0.1-0.1,0-0.1,0.1c-0.1,0.1-0.2,0.1-0.3,0.1
			c-0.2-0.2-0.3-0.2-0.3-0.1l-0.1,0.3l-0.1,0.3c-0.2,0.2-0.3,0.3-0.4,0.3h-0.3c-0.1,0.1-0.2,0.1-0.4,0.1v-0.4
			c-0.4-0.2-0.4-0.4-0.1-0.7c0.1-0.1,0.1-0.3,0.1-0.5v-0.3c-0.1-0.1-0.1-0.3-0.1-0.5v-0.7c-0.1,0-0.1,0-0.1-0.1l-0.3-0.8
			c-0.1,0-0.1-0.1-0.1-0.4l-0.1-0.3c-0.2,0-0.3-0.2-0.3-0.5l-0.1-0.3l-0.1-0.1v-0.1c0-0.3,0-0.6-0.1-0.7c0-0.4-0.1-0.7-0.4-0.7
			c-0.1,0-0.2-0.1-0.4-0.3l-0.3-0.5l-0.4-0.4c-0.1,0-0.1,0-0.1-0.1s0-0.1-0.1,0c-0.1,0-0.1,0-0.1-0.1c-0.1-0.3-0.2-0.4-0.4-0.4h-0.5
			l-0.5-0.3v-0.1l-0.1-0.1c-0.1,0.1-0.1,0-0.1-0.1c0-0.1,0-0.1-0.1,0v0.3l-0.1,0.3c0.1,0.1,0.1,0.2,0.1,0.4l-0.1,0.3l-0.4,0.8
			c0,0.4-0.1,0.4-0.3,0.3v0.5l-0.1,0.3c-0.3,0.3-0.4,0.5-0.5,0.8c0,0.2-0.1,0.3-0.3,0.3l-0.3,0.5l-0.3,0.3c0,0.2-0.2,0.4-0.5,0.8
			c-0.1,0-0.1,0-0.1,0.1l-0.8,1l-0.1,0.3l-0.3,0.3c-0.1,0.1-0.1,0.2-0.1,0.4c-0.2,0-0.3,0-0.3,0.1c0,0.2-0.1,0.4-0.4,0.7
			c-0.3,0.3-0.5,0.5-0.6,0.8c-0.1,0.3-0.3,0.5-0.5,0.6c-0.6,0.6-1,1.1-1.1,1.6c-0.7,0.7-1.3,1.5-1.7,2.4c0,0.2,0,0.2-0.1,0.1
			c-0.1,0-0.1,0-0.1,0.1c0,0.2-0.2,0.4-0.5,0.8l-0.3,0.4c-0.1,0.3-0.3,0.4-0.5,0.5v0.1l-0.3,0.3l-0.3,0.4l-0.3,0.4l-0.3,0.4
			l-0.3,0.4l-0.2,0.3v-0.2h-0.1v0.1h-0.3l-0.4,0.3c-0.2,0-0.3,0-0.3,0.1c-0.1,0.1-0.2,0.1-0.4,0.1h-0.1c0,0.1,0,0.1-0.1,0.1h-0.1
			c-0.3,0.3-0.6,0.4-1.1,0.5l-0.1,0.1l-0.3,0.1h-0.3l-0.1,0.1l-0.3,0.1l-0.5,0.3l-0.3,0.1h-0.3l-0.1,0.1l-0.5,0.1l-0.3,0.1
			c-0.2,0.2-0.3,0.3-0.4,0.3h-0.1l-0.3,0.1l-0.9,0.3c-0.6,0.3-1,0.4-1.2,0.5c-0.1,0.1-0.3,0.1-0.5,0.1l-0.5,0.3h-0.3l-0.7,0.3
			l-0.7,0.3H136c-0.1,0.1-0.1,0.1-0.1,0l-0.1,0.1h-0.1v0.1l-0.1-0.1c0,0.1,0,0.1-0.1,0c0,0.1-0.1,0.1-0.3,0.1h-0.4l0.4-0.3l0.1-0.3
			l0.9-1.2v-0.4c0-0.1,0-0.1,0.1-0.1l0.3-0.3l0.1-0.1c0.1-0.1,0.1-0.2,0.1-0.4l0.1-0.3l0.7-1c0.2,0,0.3-0.1,0.3-0.3l0.3-0.5l0.3-0.4
			l0.3-0.4l0.3-0.4l0.1-0.3l0.5-1l0.4-0.8l0.4-0.7l0.3-0.5c0-0.1,0-0.1,0.1-0.1v-0.1c0.2-0.4,0.4-0.8,0.7-1l0.1-0.1v-0.5
			c0.1,0,0.1-0.1,0.1-0.3v-0.4h-0.1c-0.2-0.2-0.3-0.3-0.4-0.3l-0.1-0.1l-0.1-0.3c-0.1-0.1-0.2-0.1-0.4-0.1v-0.1l-0.4-0.5
			c0-0.1-0.1-0.2-0.3-0.4c0.3-0.3,0.1-0.4-0.4-0.4c-0.1-0.1-0.1-0.1,0-0.1c0.2-0.2,0.2-0.3,0-0.3l-0.3-0.1v-0.1
			c-0.1,0.1-0.2,0.1-0.3,0c0-0.1-0.1-0.1-0.4-0.1h-0.3l-0.3-0.1c-0.1-0.1-0.4-0.1-0.8-0.1H137c0-0.1-0.1-0.1-0.3-0.1
			c-0.1-0.1-0.3-0.1-0.7-0.1l-0.3-0.1c-0.3,0-0.4,0-0.4-0.1c-0.1,0.1-0.2,0-0.4-0.1l-0.8-0.3c-0.2-0.2-0.3-0.1-0.3,0.1h-0.5h-0.1
			c0,0.1,0,0.1-0.1,0.1l-0.3,0.1c0,0.3-0.1,0.4-0.3,0.4c-0.2,0.2-0.3,0.3-0.3,0.4c0,0.1-0.1,0.2-0.3,0.4l-0.1,0.1l-0.4,0.9
			c-0.2,0-0.3,0.1-0.3,0.4l-0.1,0.1l-0.3,0.1c-0.2,0.5-0.3,0.8-0.3,0.9c0,0.2-0.1,0.3-0.3,0.3c-0.2,0.2-0.2,0.3-0.1,0.4
			c0.2,0.2,0.1,0.3-0.1,0.3c-0.2,0.2-0.3,0.3-0.3,0.4c0,0.3-0.1,0.6-0.3,0.8l-0.3,0.5c0,0.2,0,0.3-0.1,0.3c-0.1,0.1-0.2,0.2-0.2,0.3
			c0,0.1,0,0.2,0.1,0.2l-0.1,0.3c-0.2,0.5-0.3,0.8-0.3,0.9c0,0.2,0,0.3-0.1,0.3c-0.1,0.1-0.1,0.2-0.1,0.4v0.1l-0.1,0.3v0.3
			c-0.1,0-0.1,0.1-0.1,0.3c0,0.3,0,0.6-0.1,0.7c-0.1,0-0.1,0.1-0.1,0.3c0.1,0.1,0.1,0.3,0.1,0.5c-0.2,0.3-0.2,0.5,0,0.7
			c0,0.7,0,1.1,0.1,1.3c0,0.3,0,0.5,0.1,0.7v0.7c0.1,0.2,0.1,0.3,0.1,0.4c0,0.1-0.2,0.2-0.3,0.4c-0.1,0.3-0.3,0.6-0.7,0.9
			c-0.2,0.2-0.3,0.3-0.3,0.4l-0.4,0.4c-0.5,0.4-0.7,0.7-0.7,0.9l-0.3,0.3c-0.2,0-0.3,0.1-0.3,0.3v0.3H125l-0.3,0.3
			c-0.1,0.1-0.1,0.2-0.1,0.4l-0.3,0.3l-0.3,0.3l-0.1,0.3l-0.4,0.4l-0.1,0.3l-1.5,1.4c-0.1,0.2-0.4,0.5-0.8,0.9l-0.5,0.7
			c-0.4,0.4-0.6,0.6-0.8,0.7l-0.3,0.3l-0.3,0.3c-0.1,0.4-0.3,0.6-0.7,0.8l-1.5,1.3c-0.2,0.3-0.4,0.5-0.7,0.7l-0.1,0.1l-0.3,0.3
			l-0.8,0.8c-0.4,0.4-0.6,0.6-0.8,0.7l-0.7,0.7l-0.3,0.3l-0.3,0.3c-0.3,0.3-0.5,0.4-0.5,0.4c-0.4,0.4-0.9,1-1.8,1.6l-0.4,0.5
			l-0.8,0.7c-0.3,0.3-0.6,0.5-0.9,0.7l-0.8,0.8l-0.4,0.3l-0.4,0.4l-0.4,0.3l-0.4,0.4l-0.3,0.1l-0.3,0.1l-0.3,0.3
			c-0.3,0.3-0.6,0.4-0.9,0.4l-0.1,0.1V142c0-0.2,0-0.3,0.1-0.4v-0.3h0.1l0.3-1l0.1-0.3l0.3-0.5c0.1-0.1,0.2-0.2,0.2-0.3
			c0-0.1,0.1-0.2,0.1-0.3c0.2-0.5,0.3-0.8,0.3-0.9v-0.1l0.3-0.3c0-0.1,0-0.1,0.1,0c0.1,0,0.1,0,0.1-0.1c0.5-0.7,0.7-1.3,0.8-1.8
			c0.2-0.4,0.3-0.7,0.4-0.7c0.1,0,0.1,0,0.1-0.1c0-0.3,0-0.4,0.1-0.5l0.3-0.4l0.4-0.8l0.3-0.4c0-0.2,0-0.3,0.1-0.4l0.4-0.5l0.3-0.5
			v-0.1l0.4-0.5c0-0.3,0.1-0.5,0.4-0.8c0.1-0.1,0.1-0.2,0.1-0.4c0-0.1,0-0.1,0.1-0.1l0.3-0.4l0.1-0.3l0.3-0.4l0.1-0.3v-0.1l0.1-0.1
			l0.1-0.3v-0.1c0.3-0.3,0.5-0.5,0.5-0.8l0.1-0.3l0.3-0.4c0.4-0.3,0.5-0.6,0.5-0.8l0.1-0.1l0.5-1l0.1-0.3c0-0.1,0.1-0.1,0.3-0.1
			c0-0.1,0-0.1,0.1-0.1v-0.1c0-0.2,0-0.3,0.1-0.4c0.1,0,0.2-0.1,0.3-0.2c0.1-0.1,0.1-0.2,0.1-0.3v-0.3c0-0.1,0-0.1,0.1-0.1v-0.1
			c0.4-0.3,0.5-0.7,0.5-0.9l0.1-0.1c0,0.1,0,0.1,0.1,0v-0.1c0-0.1,0-0.1,0.1-0.1c0.2-0.2,0.3-0.3,0.3-0.4c0-0.1,0-0.1,0.1-0.1v-0.1
			c0.1-0.3,0.3-0.5,0.5-0.8l0.1-0.3l0.3-0.3l0.1-0.3c0,0.1,0,0.1,0.1,0.1v-0.1c0-0.3,0-0.4,0.1-0.5l0.3-0.3l0.1-0.3l0.1-0.3l0.4-0.5
			c0-0.1,0.1-0.2,0.3-0.4l0.3-0.5c0.1-0.2,0.3-0.4,0.5-0.7l0.1-0.3l0.1-0.1v-0.1l0.4-0.4l0.3-0.3c0.1-0.1,0.1-0.2,0.1-0.4l0.3-0.1
			c0.3,0,0.5-0.2,0.5-0.5c0-0.1,0-0.1,0.1-0.1l0.5-0.4l0.7-0.5l0.3-0.3v-0.1c-0.1,0-0.1,0-0.1-0.1h-0.1c0.1-0.1,0-0.2-0.1-0.4
			c-0.3,0-0.3-0.1-0.1-0.3c0-0.2-0.1-0.3-0.3-0.3c-0.1,0-0.1,0-0.1-0.1l-0.3-0.5l-0.1-0.3c-0.2,0-0.3-0.1-0.3-0.4l-0.1-0.3h-0.8
			l-0.3-0.1h-0.4c-0.2,0-0.3,0-0.4-0.1c-0.2-0.2-0.4-0.2-0.5,0H119l-0.3-0.1c-0.2-0.2-0.3-0.2-0.4-0.1v0.1c-0.1,0-0.1,0-0.1-0.1
			c0,0.1-0.1,0-0.3-0.1l-0.5-0.3c-0.1-0.2-0.2-0.2-0.4,0l-0.1,0.1c-0.1,0.1-0.2,0.1-0.4,0.1H116c-0.2,0-0.3,0-0.3,0.1
			c-0.1-0.2-0.2-0.2-0.4,0c-0.4,0.3-0.5,0.6-0.4,0.7c0.1,0.1,0.1,0.2,0.1,0.4l-0.8,0.8h-0.1l-0.1,0.1c0,0.2,0,0.3-0.1,0.3l-0.4,0.4
			c-0.2,0.2-0.3,0.3-0.4,0.3c-0.2,0.2-0.3,0.3-0.3,0.5h-0.1l-0.7,0.8l-0.5,0.5l-0.3,0.1l-0.3,0.4c0,0.2-0.1,0.3-0.3,0.3
			c-0.2,0-0.3,0.1-0.3,0.3c-0.1,0-0.1,0-0.1,0.1l-0.5,0.7l-0.3,0.3l-0.4,0.4c-0.2,0-0.3,0.1-0.3,0.3l-0.3,0.3l-0.3,0.3l-0.3,0.3
			l-0.3,0.4l-1.2,1.2c-0.2,0.2-0.3,0.2-0.3,0.1l-0.1,0.1c0,0.3-0.1,0.4-0.3,0.4l-0.5,0.5c-0.2,0.2-0.3,0.3-0.3,0.4
			c0,0.1,0,0.1-0.1,0.1c-0.1,0-0.2,0-0.2,0.1c0,0,0,0.1,0.1,0.2c0,0.1,0,0.1-0.1,0.1c-0.1,0-0.2,0.1-0.4,0.4c-0.1,0-0.2,0.1-0.4,0.3
			c-0.2,0.2-0.3,0.3-0.3,0.4l-0.7,0.7l-0.3,0.3c-0.3,0-0.3,0.1-0.1,0.3c-0.1,0-0.2,0.1-0.3,0.2c-0.1,0.1-0.2,0.3-0.2,0.5h-0.1
			c0,0.1,0,0.1-0.1,0.1l-1.1,1l-0.3,0.3l-0.3,0.4l-0.7,0.8l-0.1,0.1c-0.5,0.3-0.7,0.6-0.8,0.9c-0.3,0.4-0.6,0.7-0.9,0.9l-0.3,0.5
			c-0.3,0.4-0.7,0.7-1.2,1.2l-0.1,0.1l-0.3,0.1l-0.8,0.9h-0.1c-0.2-0.2-0.3-0.1-0.3,0.1c-0.1,0-0.2,0.1-0.4,0.3
			c-0.2,0.3-0.4,0.5-0.7,0.7c-0.4,0.4-0.6,0.6-0.7,0.8c-0.3,0.3-0.4,0.5-0.4,0.8c-0.2,0.2-0.4,0.2-0.7,0.1c-0.1,0-0.1,0,0,0.1
			c0.1,0.1,0,0.1-0.1,0.1c-0.2,0-0.3,0.1-0.3,0.4l-0.1,0.1c0,0.2,0,0.3-0.1,0.3c-0.2,0.2-0.3,0.3-0.3,0.4c-0.3,0.1-0.5,0.3-0.5,0.5
			l-0.1,0.1c-0.5,0.1-0.8,0.4-0.9,0.8l-0.1,0.3c0,0.1,0,0.2-0.1,0.3c-0.1,0.1-0.2,0.2-0.3,0.2l-0.3,0.4l-0.4,0.4v-0.1
			c-0.1,0-0.1,0-0.1,0.1c0,0.5-0.2,0.7-0.7,0.5l-0.1,0.1h0.1v0.3l-0.5,0.3c-0.2,0.2-0.3,0.2-0.3,0.1h-0.1v0.1c0.2,0.3,0,0.4-0.4,0.4
			c-0.2,0-0.2,0-0.1-0.1c0.1,0,0.1,0,0-0.1c0-0.2,0-0.3,0.1-0.4v-0.4c0.1,0,0.1-0.2,0.1-0.5c0-0.3,0-0.4,0.1-0.5l0.3-0.4
			c0.2,0,0.3-0.1,0.3-0.4c-0.1-0.2,0-0.3,0.1-0.5c0.4-0.1,0.5-0.5,0.5-1.3c-0.1-0.2,0-0.4,0.1-0.8v-0.3c0-0.1,0.1-0.2,0.3-0.4
			c0.1,0,0.1,0,0.1-0.1c-0.1-0.2-0.1-0.3,0-0.4c0.1,0,0.1-0.1,0.1-0.3c-0.1-0.1,0-0.2,0.3-0.4l0.1-0.1c0-0.1,0-0.1,0.1-0.1v-0.3
			c-0.1-0.1-0.1-0.1,0-0.1c0.1,0,0.2-0.1,0.2-0.2c0-0.1,0.1-0.2,0.1-0.3c0.2,0,0.3-0.1,0.3-0.3c0-0.1,0-0.1-0.1-0.1
			c-0.1,0-0.1,0-0.1-0.1c0-0.1,0.1-0.1,0.2-0.1l0.3-0.3c-0.1,0-0.1,0,0-0.1c0.1-0.1,0.1-0.2,0.1-0.4c0-0.1,0.1-0.2,0.3-0.4
			c-0.1-0.1-0.1-0.2,0-0.3l0.1-0.3c-0.1,0-0.1,0,0-0.1c0.1,0,0.1-0.1,0.1-0.3v-0.4c0.2-0.2,0.3-0.3,0.3-0.4c0-0.2,0-0.3,0.1-0.4
			l0.1-0.3l-0.1-0.1v-0.3c0.5-0.5,0.8-1,0.8-1.3v-0.3c0.2-0.2,0.3-0.3,0.3-0.4c0-0.2,0.1-0.3,0.3-0.5v-0.1c0.2-0.2,0.3-0.4,0.3-0.7
			c0.1-0.4,0.4-0.8,0.9-1.2v-0.1c0-0.1,0-0.1-0.1-0.1h-0.1v-0.1c0.3-0.3,0.4-0.5,0.4-0.7c0-0.2,0-0.3,0.1-0.4v-0.1
			c0.1,0.1,0.2,0.1,0.2,0.1c0,0,0.1-0.1,0.1-0.2c0-0.2,0-0.3,0.1-0.4c0.1,0,0.1,0,0.1-0.1c0-0.3,0.1-0.6,0.3-0.8v-0.3l0.1-0.3
			c0.1,0,0.1-0.1,0.1-0.2c0.4-0.6,0.8-1.1,1.1-1.6c0.2-0.4,0.2-0.6-0.1-0.8c-0.1,0-0.1-0.1-0.2-0.1c0.2-0.4,0.4-0.8,0.8-1.1
			c0-0.2,0-0.3,0.1-0.4l0.1-0.1l0.3-0.5c0-0.1,0.1-0.2,0.3-0.4c-0.2-0.2-0.2-0.3-0.1-0.4c0.1,0,0.1,0,0.1-0.1c0-0.2,0.1-0.3,0.4-0.4
			c0.1-0.1,0.1-0.2,0-0.3l0.1-0.3c0.2-0.2,0.3-0.4,0.4-0.7c0.1-0.3,0.1-0.4,0.1-0.5l0.3-0.3c0-0.2,0-0.3,0.1-0.4l-0.1-0.1
			c0.1-0.3,0.3-0.5,0.5-0.5c0.1-0.1,0.1-0.2,0.1-0.4c0-0.3,0-0.4,0.1-0.5l0.3-0.4c0.1-0.1,0.3-0.1,0.5-0.1c0,0.2,0.1,0.2,0.3,0
			l0.3-0.1c0.2,0.2,0.3,0.2,0.3,0c0-0.2,0.1-0.3,0.3-0.3V107c-0.2,0-0.3,0-0.3-0.1l-0.1-0.3l-1.2-0.9l-0.4-0.4
			c-0.1,0-0.2-0.1-0.4-0.3l-0.8-0.8c-0.1,0-0.1,0-0.1-0.1l-0.3,0.1c-0.1,0-0.1,0-0.1-0.1v-0.3c-0.1,0-0.1,0-0.1-0.1
			c-0.2,0-0.3,0-0.3-0.1c-0.2,0.2-0.3,0.2-0.3,0c0-0.1,0-0.1-0.1-0.1c-0.2,0-0.3-0.1-0.3-0.3h-0.1c-0.2,0.2-0.3,0.2-0.3,0h-0.3
			c-0.1,0-0.1-0.1-0.1-0.3h-0.3c-0.1,0-0.1,0-0.1-0.1h-0.3c-0.2,0-0.3,0-0.4-0.1l-0.4-0.3c-0.2-0.2-0.4-0.2-0.5-0.2
			c-0.2,0-0.3,0.1-0.4,0.1c-0.1,0-0.1,0-0.1-0.1c0-0.1,0-0.2-0.1-0.2c-0.1,0-0.1,0-0.1,0.1l-0.3,0.3h-0.4c-0.2-0.3-0.6-0.6-1.2-0.7
			h-0.1c-0.3,0.1-0.4,0.3-0.4,0.5c0,0.2,0,0.3-0.1,0.4c-0.2,0-0.3,0-0.3,0.1c0,0.1,0,0.2-0.1,0.4c0,0.2-0.1,0.3-0.2,0.3l-0.3,0.5
			c-0.1,0.4-0.3,0.7-0.5,0.9c0,0.1,0,0.1-0.1,0.1c-0.1,0-0.1,0-0.1,0.1v0.3c-0.1,0-0.1,0-0.1,0.1c0.2,0.4,0.1,0.6-0.3,0.7
			c-0.1,0.1,0,0.1,0.1,0.1c-0.3,0.3-0.5,0.5-0.5,0.7c-0.1,0.1-0.1,0.2-0.1,0.4c0,0.3-0.1,0.5-0.4,0.8c-0.1,0.1-0.1,0.2-0.1,0.4
			c0,0.2,0,0.3-0.1,0.4c-0.1,0.1-0.1,0.2-0.1,0.4c0,0.1,0,0.1-0.1,0.1c-0.1,0-0.1,0-0.1,0.1l-0.3,0.8c-0.2,0.2-0.3,0.3-0.3,0.4
			l-0.3,0.3l0.1,0.1c-0.1,0.1-0.1,0.2-0.1,0.4c-0.2,0.2-0.3,0.5-0.4,0.9c-0.1,0.1-0.1,0.3-0.1,0.5l-0.1,0.1c-0.2,0-0.3,0.1-0.3,0.3
			c0,0.3,0,0.6-0.1,0.7l-0.1,0.3c0.2,0.2,0.2,0.3,0,0.3c-0.1,0.1-0.1,0.2-0.1,0.4l-0.3,0.8l-0.3,0.5c0,0.2,0,0.3-0.1,0.3
			c-0.1,0.1-0.1,0.2-0.1,0.4c-0.1,0.1-0.1,0.2-0.1,0.3c0,0.1-0.1,0.2-0.3,0.4v0.1c0.2,0.1,0.2,0.2,0,0.4c-0.1,0.1-0.1,0.2-0.1,0.4
			c0,0.2,0,0.3-0.1,0.4l-0.1,0.1l-0.1,0.3c0.1,0.1,0.1,0.2,0,0.4c-0.2,0.2-0.2,0.3-0.1,0.4c0,0.2,0,0.3-0.1,0.3l-0.1,0.1l-0.1,0.7
			l-0.1,0.3l-0.3,0.8c0,0.3-0.1,0.5-0.3,0.7c0,0.1-0.1,0.5-0.4,1.3c0,0.2-0.1,0.3-0.3,0.3c-0.1,0.1,0,0.1,0.1,0.1
			c0.1,0.1,0.1,0.2,0,0.4c-0.2,0.2-0.3,0.4-0.3,0.8c-0.4,0.6-0.5,1.1-0.5,1.6c0,0.2,0,0.3-0.1,0.4c-0.2,0.1-0.2,0.2,0,0.4
			c-0.2,0-0.3,0.2-0.3,0.7c0,0.2,0,0.3-0.1,0.3c-0.2,0.1-0.2,0.2,0,0.4c-0.2,0.2-0.2,0.3-0.1,0.4c0.1,0.1,0,0.2-0.1,0.4
			c0,0.1,0,0.1-0.1,0.1c-0.1,0.1-0.1,0.2,0,0.3v0.4l-0.1,0.3l-0.3,0.9v0.4c-0.1,0.1-0.1,0.2-0.1,0.4c0,0.1-0.1,0.4-0.3,0.9
			c0,0.2,0,0.3-0.1,0.4c-0.1,0.1,0,0.2,0.1,0.4v0.1c-0.1,0.1-0.1,0.2-0.1,0.4v0c-2.1,1.8-4.4,3.7-6.9,5.4c-2.7,1.9-5.4,3.4-8.3,4.4
			c-2.8,1-5.7,1.4-8.6,1.1c-2.9-0.3-5.7-1.5-8.4-3.9c-3-2.5-4.8-5.7-5.5-9.6c-0.8-4.1-0.2-8.5,1.9-13.2c0.9-2.2,2.1-4.4,3.6-6.5
			c1.5-2.1,3.2-4.2,5.1-6.1c1.2-1.2,2.4-2.3,3.7-3.3c1.3-1,2.7-2,4.1-2.9c1.6,1.3,3.4,2,5.4,2.2c2,0.2,3.9,0.2,5.9,0.2
			c3.1-0.1,5.7-0.8,7.8-1.9c2-1,3-2.3,3-3.8c-0.1-1.3-1-2.2-2.5-2.9c-1.6-0.7-3.8-1.1-6.8-1.1c-3.1,0.1-6.1,0.5-9.2,1.3
			c-0.1-0.3-0.3-0.8-0.4-1.6c-0.2-1.6,0-3.5,0.4-5.5c0.4-2,1.1-4,2.1-5.8l1.6-2.5c0.6,0.2,1.2,0.3,1.7,0.4c0.5,0.2,1.1,0.3,1.7,0.4
			c2.7,0.7,5.3,1.4,7.8,2c2.5,0.6,4.9,0.8,7,0.7c3.1-0.1,5.5-1.2,7.3-3.2c1.6-2,2.5-4.3,2.5-6.9c0-2.5-0.7-4.6-2.2-6.5
			c-1.7-2-4-3.1-6.9-3.1C83.1,63,82.1,63.1,81.1,63.2"/>
	</defs>
	<clipPath id="SVGID_2_">
		<use xlink:href="#SVGID_1_"  style="overflow:visible;"/>
	</clipPath>
	
		<linearGradient id="SVGID_3_" gradientUnits="userSpaceOnUse" x1="6677.0796" y1="509.6286" x2="6678.0522" y2="509.6286" gradientTransform="matrix(239.352 0 0 -239.352 -1598164 122105.3203)">
		<stop  offset="0" style="stop-color:#926F40"/>
		<stop  offset="0.1127" style="stop-color:#C69B61"/>
		<stop  offset="0.2103" style="stop-color:#EDBC79"/>
		<stop  offset="0.2611" style="stop-color:#FCC982"/>
		<stop  offset="0.4193" style="stop-color:#EABA77"/>
		<stop  offset="0.733" style="stop-color:#BD945B"/>
		<stop  offset="1" style="stop-color:#926F40"/>
	</linearGradient>
	<rect x="8.4" y="63" class="st0" width="232.7" height="123.4"/>
</g>
</svg>
